<svg viewBox="0 0 800 800" xmlns="http://www.w3.org/2000/svg"><path d="M79.6620688723483,453.21786441546556 L74.59919243213602,444.84883095790985 M74.59919243213602,444.84883095790985 L70.20313781599435,436.36861485494785 M70.20313781599435,436.36861485494785 L66.4802117286236,427.7950050294611 M66.4802117286236,427.7950050294611 L63.43520675278012,419.1458583415236 M63.43520675278012,419.1458583415236 L61.07152473665002,410.43901753215994 M61.07152473665002,410.43901753215994 L59.391056785052,401.69230573876877 M59.391056785052,401.69230573876877 L58.39435144145443,392.92349554392433 M58.39435144145443,392.92349554392433 L58.08050060715931,384.15022140745634 M58.08050060715931,384.15022140745634 L58.44723985224795,375.39002090227945 M58.44723985224795,375.39002090227945 L59.49097400472169,366.6602239821777 M59.49097400472169,366.6602239821777 L61.20679491704277,357.977981216288 M61.20679491704277,357.977981216288 L63.58846918092752,349.36016722729636 M63.58846918092752,349.36016722729636 L66.62858095499007,340.8234428894144 M66.62858095499007,340.8234428894144 L70.31846467736773,332.384130514983 M70.31846467736773,332.384130514983 L74.64823856430405,324.05823697342214 M74.64823856430405,324.05823697342214 L79.60696675904734,315.86142564079125 M79.60696675904734,315.86142564079125 L85.18256398436142,307.80901020525164 M85.18256398436142,307.80901020525164 L91.36190255768219,299.91587739571867 M91.36190255768219,299.91587739571867 L98.13082070424707,292.1965243197903 M98.13082070424707,292.1965243197903 L105.47419646666793,284.6650191607569 M105.47419646666793,284.6650191607569 L113.37594796480585,277.33494259782157 M113.37594796480585,277.33494259782157 L121.819146986276,270.21946533244284 M121.819146986276,270.21946533244284 L130.78596558275842,263.331238343207 M130.78596558275842,263.331238343207 L140.257789422727,256.6824292758174 M140.257789422727,256.6824292758174 L150.21525973473288,250.2847174538135 M150.21525973473288,250.2847174538135 L160.63821918031854,244.14922222060395 M160.63821918031854,244.14922222060395 L171.50591402217012,238.28658569274728 M171.50591402217012,238.28658569274728 L182.79689559206497,232.70688359064485 M182.79689559206497,232.70688359064485 L194.48911023449708,227.41964850217408 M194.48911023449708,227.41964850217408 L206.55996102477914,222.4338675538184 M206.55996102477914,222.4338675538184 L218.98631165787276,217.75797098221182 M218.98631165787276,217.75797098221182 L231.74452005017093,213.39980287581318 M231.74452005017093,213.39980287581318 L244.81054005254268,209.3666707689306 M244.81054005254268,209.3666707689306 L258.15987502078053,205.66527840559354 M258.15987502078053,205.66527840559354 L271.7676826081347,202.30177023311606 M271.7676826081347,202.30177023311606 L285.6087638433509,199.2817002418352 M285.6087638433509,199.2817002418352 L299.6576209409805,196.6100398703582 M299.6576209409805,196.6100398703582 L313.8884870880562,194.2911799754868 M313.8884870880562,194.2911799754868 L328.2753686505692,192.3289045449663 M328.2753686505692,192.3289045449663 L342.7920852736313,190.72642294309412 M342.7920852736313,190.72642294309412 L357.41224765043194,189.48633656425488 M357.41224765043194,189.48633656425488 L372.10937602607964,188.61066388328112 M372.10937602607964,188.61066388328112 L386.8569116566535,188.10084449271088 M386.8569116566535,188.10084449271088 L401.6282011769714,187.9576974173159 M401.6282011769714,187.9576974173159 L416.3965335603247,188.18144756530327 M416.3965335603247,188.18144756530327 L431.13528388239826,188.7717311446159 M431.13528388239826,188.7717311446159 L445.81779044383427,189.72759987955232 M445.81779044383427,189.72759987955232 L460.4174985778887,191.0474943034905 M460.4174985778887,191.0474943034905 L474.90792732149635,192.729275294493 M474.90792732149635,192.729275294493 L489.2627695280636,194.77019001722186 M489.2627695280636,194.77019001722186 L503.4558688479856,197.1669061058649 M503.4558688479856,197.1669061058649 L517.4612950554877,199.91550013809388 M517.4612950554877,199.91550013809388 L531.253287179125,203.0114698595322 M531.253287179125,203.0114698595322 L544.8064730685769,206.44970061936928 M544.8064730685769,206.44970061936928 L558.0956868370102,210.2245228676696 M558.0956868370102,210.2245228676696 L571.0961642139054,214.32966176639718 M571.0961642139054,214.32966176639718 L583.7835143743113,218.75827808514083 M583.7835143743113,218.75827808514083 L596.1337656158541,223.5029497866983 M596.1337656158541,223.5029497866983 L608.123394203966,228.55570166323378 M608.123394203966,228.55570166323378 L619.7293715366889,233.90798436474887 M619.7293715366889,233.90798436474887 L630.929229909525,239.5506816237564 M630.929229909525,239.5506816237564 L641.7010374693635,245.4741448406322 M641.7010374693635,245.4741448406322 L652.0234944052559,251.66817460808426 M652.0234944052559,251.66817460808426 L661.8759672948996,258.12202580992425 M661.8759672948996,258.12202580992425 L671.2384845818642,264.82444940888195 M671.2384845818642,264.82444940888195 L680.0918258849499,271.763665978724 M680.0918258849499,271.763665978724 L688.4175665349005,278.9273924588632 M688.4175665349005,278.9273924588632 L696.1980722245862,286.3028604251925 M696.1980722245862,286.3028604251925 L703.4165856417667,293.87682456597736 M703.4165856417667,293.87682456597736 L710.0572279191864,301.6355831369628 M710.0572279191864,301.6355831369628 L716.1051064172558,309.56495658541536 M716.1051064172558,309.56495658541536 L721.5462638169697,317.6503980611753 M721.5462638169697,317.6503980611753 L726.3678128773493,325.8768860259568 M726.3678128773493,325.8768860259568 L730.5579174691736,334.2290521414943 M730.5579174691736,334.2290521414943 L734.1058487481085,342.6911504331088 M734.1058487481085,342.6911504331088 L737.0020015290148,351.24710507084137 M737.0020015290148,351.24710507084137 L739.237991203061,359.8805021407038 M739.237991203061,359.8805021407038 L740.8066282535364,368.5746556954295 M740.8066282535364,368.5746556954295 L741.7020083431694,377.3125968144578 M741.7020083431694,377.3125968144578 L741.9194993928407,386.0771690931241 M741.9194993928407,386.0771690931241 L741.4557754717241,394.8509677931464 M741.4557754717241,394.8509677931464 L740.308859971862,403.61643834520294 M740.308859971862,403.61643834520294 L738.4782025787135,412.3559135977356 M738.4782025787135,412.3559135977356 L735.9646256549638,421.05162063805614 M735.9646256549638,421.05162063805614 L732.7703539322115,429.68570479029495 M732.7703539322115,429.68570479029495 L728.8990843387603,438.24031945784793 M728.8990843387603,438.24031945784793 L724.3559396379167,446.6976321977943 M724.3559396379167,446.6976321977943 L719.147543406585,455.0398695909171 M719.147543406585,455.0398695909171 L713.2819827599918,463.24936367832083 M713.2819827599918,463.24936367832083 L706.7688200942217,471.30859176891056 M706.7688200942217,471.30859176891056 L699.6191133710463,479.20023390096037 M699.6191133710463,479.20023390096037 L691.8453579121033,486.90718814944256 M691.8453579121033,486.90718814944256 L683.4615693066306,494.4126577989437 M683.4615693066306,494.4126577989437 L674.4831497237086,501.7001442796209 M674.4831497237086,501.7001442796209 L664.9269729960371,508.7535323658385 M664.9269729960371,508.7535323658385 L654.8113168320065,515.5571320281987 M654.8113168320065,515.5571320281987 L644.1558241233474,522.0957016175187 M644.1558241233474,522.0957016175187 L632.9814792802354,528.3545058802797 M632.9814792802354,528.3545058802797 L621.310629161289,534.3193911576327 M621.310629161289,534.3193911576327 L609.1667875914447,539.9767404819895 M609.1667875914447,539.9767404819895 L596.5747631583661,545.3136167696842 M596.5747631583661,545.3136167696842 L583.5604914342128,550.3177427598811 M583.5604914342128,550.3177427598811 L570.1509909416079,554.977540011928 M570.1509909416079,554.977540011928 L556.3743940353793,559.2822114584437 M556.3743940353793,559.2822114584437 L542.2597030328284,563.2217147460577 M542.2597030328284,563.2217147460577 L527.83689322851,566.7868420619492 M527.83689322851,566.7868420619492 L513.1367613355626,569.969223782174 M513.1367613355626,569.969223782174 L498.1908100919363,572.7613757438771 M498.1908100919363,572.7613757438771 L483.03127168889915,575.1567061693962 M483.03127168889915,575.1567061693962 L467.6909219563273,577.1495773270967 M467.6909219563273,577.1495773270967 L452.2030235006622,578.7352423506255 M452.2030235006622,578.7352423506255 L436.6012315522855,579.9099376042755 M436.6012315522855,579.9099376042755 L420.91959186598876,580.6708949811431 M420.91959186598876,580.6708949811431 L405.1922723628467,581.0162850417378 M405.1922723628467,581.0162850417378 L389.45363574648786,580.9452932715387 M389.45363574648786,580.9452932715387 L373.7380269512696,580.4580934593382 M373.7380269512696,580.4580934593382 L358.0797880834264,579.5558417715102 M358.0797880834264,579.5558417715102 L342.5130273697436,578.2406690753978 M342.5130273697436,578.2406690753978 L327.0716627547839,576.5157220505872 M327.0716627547839,576.5157220505872 L311.7892401522682,574.3850678155738 M311.7892401522682,574.3850678155738 L296.6988553978186,571.8537709541363 M296.6988553978186,571.8537709541363 L281.83312676042,568.9277949831187 M281.83312676042,568.9277949831187 L267.2240347360489,565.6140481685593 M267.2240347360489,565.6140481685593 L267.55839161784417,596.6044187899571 M267.55839161784417,596.6044187899571 L282.1308503906981,599.9258507618032 M282.1308503906981,599.9258507618032 L296.9592450544532,602.8586053690758 M296.9592450544532,602.8586053690758 L312.0116814276918,605.3957610525755 M312.0116814276918,605.3957610525755 L327.25562970065977,607.5313428767207 M327.25562970065977,607.5313428767207 L342.65808416548674,609.2602765794028 M342.65808416548674,609.2602765794028 L358.1855905630702,610.5784873080837 M358.1855905630702,610.5784873080837 L373.8043238523677,611.4828223957066 M373.8043238523677,611.4828223957066 L389.48026942000956,611.9711469391914 M389.48026942000956,611.9711469391914 L405.1791795074609,612.0423025826841 M405.1791795074609,612.0423025826841 L420.86680359336117,611.6961152062227 M420.86680359336117,611.6961152062227 L436.5088734034777,610.9334008643071 M436.5088734034777,610.9334008643071 L452.071314839066,609.7559924730767 M452.071314839066,609.7559924730767 L467.5201754596494,608.166663385529 M467.5201754596494,608.166663385529 L482.82189207995435,606.1691843977889 M482.82189207995435,606.1691843977889 L497.9432927834105,603.7683114408665 M497.9432927834105,603.7683114408665 L512.851690763716,600.9696930241806 M512.851690763716,600.9696930241806 L527.5149409691705,597.7799335890621 M527.5149409691705,597.7799335890621 L541.9016253842042,594.2065317357097 M541.9016253842042,594.2065317357097 L555.9810295988851,590.2578733170257 M555.9810295988851,590.2578733170257 L569.7232578594441,585.9431840937826 M569.7232578594441,585.9431840937826 L583.0993841977345,581.2725261176975 M583.0993841977345,581.2725261176975 L596.0813496397129,576.2567177611056 M596.0813496397129,576.2567177611056 L608.6422054269366,570.907360482316 M608.6422054269366,570.907360482316 L620.7560821930049,565.2367561252973 M620.7560821930049,565.2367561252973 L632.3982338726921,559.257867877064 M632.3982338726921,559.257867877064 L643.5452050482115,552.9843404228178 M643.5452050482115,552.9843404228178 L654.1747034841557,546.4303564636859 M654.1747034841557,546.4303564636859 L664.2657951226622,539.6106817716642 M664.2657951226622,539.6106817716642 L673.7988832271982,532.5405898590208 M673.7988832271982,532.5405898590208 L682.7557320158837,525.2358038695427 M682.7557320158837,525.2358038695427 L691.1195052884198,517.7124733817841 M691.1195052884198,517.7124733817841 L698.874834085256,509.98713249806264 M698.874834085256,509.98713249806264 L706.0077318668956,502.0766144804628 M706.0077318668956,502.0766144804628 L712.5057279160286,493.9980588665348 M712.5057279160286,493.9980588665348 L718.357784698864,485.7688241197841 M718.357784698864,485.7688241197841 L723.5543559857907,477.40647231407155 M723.5543559857907,477.40647231407155 L728.087366685405,468.92871155908614 M728.087366685405,468.92871155908614 L731.9502012007621,460.3533561183061 M731.9502012007621,460.3533561183061 L735.1377406863262,451.6982798777635 M735.1377406863262,451.6982798777635 L737.6462883298722,442.9813713809259 M737.6462883298722,442.9813713809259 L739.4736156718739,434.2205277498498 M739.4736156718739,434.2205277498498 L740.6188930333981,425.43356462985605 M740.6188930333981,425.43356462985605 L741.08265997229,416.63819213458476 M741.08265997229,416.63819213458476 L740.866878840602,407.852008006798 M740.866878840602,407.852008006798 L739.9748580786368,399.09246027339674 M739.9748580786368,399.09246027339674 L738.4112092281556,390.3767484906226 M738.4112092281556,390.3767484906226 L736.1818131835545,381.7218847317603 M736.1818131835545,381.7218847317603 L733.2938331589423,373.14459784611756 M733.2938331589423,373.14459784611756 L729.7556248801924,364.66134440769105 M729.7556248801924,364.66134440769105 L725.5767620738833,356.2882424783516 M725.5767620738833,356.2882424783516 L720.7679398387244,348.0410798330811 M720.7679398387244,348.0410798330811 L715.3409583669513,339.93526603277627 M715.3409583669513,339.93526603277627 L709.3086669489732,331.985863310226 M709.3086669489732,331.985863310226 L702.6849829508528,324.20745832904856 M702.6849829508528,324.20745832904856 L695.4847574052702,316.6142698136718 M695.4847574052702,316.6142698136718 L687.7238258403928,309.2200377256529 M687.7238258403928,309.2200377256529 L679.418900780447,302.0380446591753 M679.418900780447,302.0380446591753 L670.5875703223708,295.08109529886264 M670.5875703223708,295.08109529886264 L661.2482117279649,288.3615078866689 M661.2482117279649,288.3615078866689 L651.4199967733878,281.8910958684351 M651.4199967733878,281.8910958684351 L641.1228473275571,275.681141034514 M641.1228473275571,275.681141034514 L630.3773462543721,269.7424200197826 M630.3773462543721,269.7424200197826 L619.2047419240583,264.08516237306526 M619.2047419240583,264.08516237306526 L607.6269139397674,258.719045410192 M607.6269139397674,258.719045410192 L595.6662771607546,253.65321270335022 M595.6662771607546,253.65321270335022 L583.3458066729079,248.89623937349663 M583.3458066729079,248.89623937349663 L570.688972158132,244.45612481507658 M570.688972158132,244.45612481507658 L557.7196908131884,240.34031369168056 M557.7196908131884,240.34031369168056 L544.4622985441862,236.55566619427438 M544.4622985441862,236.55566619427438 L530.941504362375,233.10847647650428 M530.941504362375,233.10847647650428 L517.1824184522875,230.00443162730386 M517.1824184522875,230.00443162730386 L503.2103572390988,227.2486621680401 M503.2103572390988,227.2486621680401 L489.0510254715768,224.8456843842085 M489.0510254715768,224.8456843842085 L474.73029712838706,222.79943395850503 M474.73029712838706,222.79943395850503 L460.2742721043356,221.113253697922 M460.2742721043356,221.113253697922 L445.7092010112906,219.78990507577984 M445.7092010112906,219.78990507577984 L431.06150809156566,218.83153394760555 M431.06150809156566,218.83153394760555 L416.35769128800723,218.23970468907285 M416.35769128800723,218.23970468907285 L401.624355439728,218.01536857112066 M401.624355439728,218.01536857112066 L386.88806875957425,218.15889053300336 M386.88806875957425,218.15889053300336 L372.1754853649711,218.6700449530587 M372.1754853649711,218.6700449530587 L357.51320179903826,219.54801021921372 M357.51320179903826,219.54801021921372 L342.9277201024598,220.79134221213454 M342.9277201024598,220.79134221213454 L328.44546335429743,222.39801610602646 M328.44546335429743,222.39801610602646 L314.0927641864287,224.36542232945706 M314.0927641864287,224.36542232945706 L299.89574650731345,226.69034146067534 M299.89574650731345,226.69034146067534 L285.88034763031453,229.36897767490825 M285.88034763031453,229.36897767490825 L272.07227821820834,232.3969264305398 M272.07227821820834,232.3969264305398 L258.4969801307699,235.7692008434097 M258.4969801307699,235.7692008434097 L245.17959666425406,239.48022973228004 M245.17959666425406,239.48022973228004 L232.14491483615268,243.5238497157365 M232.14491483615268,243.5238497157365 L219.41737624432363,247.8933364782124 M219.41737624432363,247.8933364782124 L207.02097248536234,252.5813601874196 M207.02097248536234,252.5813601874196 L194.9792914463874,257.5800529334173 M194.9792914463874,257.5800529334173 L183.31541580262382,262.8809590358199 M183.31541580262382,262.8809590358199 L172.05188947396695,268.4750644094875 M172.05188947396695,268.4750644094875 L161.21071372675033,274.3528080551221 M161.21071372675033,274.3528080551221 L150.81328558800914,280.50408442781026 M150.81328558800914,280.50408442781026 L140.88030810418854,286.91822014842677 M140.88030810418854,286.91822014842677 L131.43188864024341,293.58406343737533 M131.43188864024341,293.58406343737533 L122.4873371866612,300.48990118456726 M122.4873371866612,300.48990118456726 L114.06522036857041,307.6235308273241 M114.06522036857041,307.6235308273241 L106.18331961303915,314.97226538805455 M106.18331961303915,314.97226538805455 L98.85851807927077,322.5228970276171 M98.85851807927077,322.5228970276171 L92.1068539662553,330.26180710483294 M92.1068539662553,330.26180710483294 L85.94340721174683,338.17488848752 M85.94340721174683,338.17488848752 L80.38229926993148,346.2476043147137 M80.38229926993148,346.2476043147137 L75.43661942040808,354.4650274307913 M75.43661942040808,354.4650274307913 L71.11841651037508,362.8118029842546 M71.11841651037508,362.8118029842546 L67.43859225326514,371.2722259224576 M67.43859225326514,371.2722259224576 L64.40699639475395,379.83024722806215 M64.40699639475395,379.83024722806215 L62.03226501414542,388.4695020639316 M62.03226501414542,388.4695020639316 L60.32178716187349,397.1732866190225 M60.32178716187349,397.1732866190225 L59.28177206005745,405.9246832512479 M59.28177206005745,405.9246832512479 L58.91710667841153,414.7064981510268 M58.91710667841153,414.7064981510268 L59.231368069203256,423.5013581551069 M59.231368069203256,423.5013581551069 L60.22680570891629,432.29168245206836 M60.22680570891629,432.29168245206836 L61.9043160567536,441.05979359283714 M61.9043160567536,441.05979359283714 L64.26334255600392,449.7878761558822 M64.26334255600392,449.7878761558822 L67.30198951840379,458.45806452827196 M67.30198951840379,458.45806452827196 L71.01685443170322,467.0524739267078 M71.01685443170322,467.0524739267078 L75.4031477452013,475.55320588661436 M75.4031477452013,475.55320588661436 L80.45456986728345,483.94243050462603 M80.45456986728345,483.94243050462603 L79.6620688723483,453.21786441546556 M267.2240347360489,565.6140481685593 L265.18697238307135,567.3044987980629 M265.18697238307135,567.3044987980629 L262.62837978807164,568.7274572617466 M262.62837978807164,568.7274572617466 L259.6497319849655,569.8261294996933 M259.6497319849655,569.8261294996933 L256.36932368993973,570.5566215163981 M256.36932368993973,570.5566215163981 L252.91765414578452,570.8897447708019 M252.91765414578452,570.8897447708019 L249.43215031392432,570.8121594964892 M249.43215031392432,570.8121594964892 L246.05158206999246,570.3269819141206 M246.05158206999246,570.3269819141206 L242.9104982788335,569.4536047619827 M242.9104982788335,569.4536047619827 L240.13378565678167,568.2269393799726 M240.13378565678167,568.2269393799726 L237.83167473697918,566.6959731749939 M237.83167473697918,566.6959731749939 L236.09529817799134,564.9217755423591 M236.09529817799134,564.9217755423591 L234.9931570154995,562.9749701596234 M234.9931570154995,562.9749701596234 L234.5684143928769,560.9329576295779 M234.5684143928769,560.9329576295779 L234.83721717873084,558.8767764939207 M234.83721717873084,558.8767764939207 L235.78829627247947,556.8878398532597 M235.78829627247947,556.8878398532597 L222.76372872176745,552.5718999451828 M222.76372872176745,552.5718999451828 L210.0905850942318,547.9344019346148 M210.0905850942318,547.9344019346148 L197.79318615478562,542.9852331556674 M197.79318615478562,542.9852331556674 L185.89491990515162,537.7349055309218 M185.89491990515162,537.7349055309218 L174.4182895999989,532.1944846223377 M174.4182895999989,532.1944846223377 L163.3847333234822,526.3756286323703 M163.3847333234822,526.3756286323703 L152.81466392128965,520.290509303024 M152.81466392128965,520.290509303024 L142.72741535018736,513.9517883110133 M142.72741535018736,513.9517883110133 L133.14120826339615,507.37258127598756 M133.14120826339615,507.37258127598756 L124.07311792394978,500.56642199034724 M124.07311792394978,500.56642199034724 L115.53906585108729,493.5472174107729 M115.53906585108729,493.5472174107729 L107.55371775712507,486.3292577649405 M107.55371775712507,486.3292577649405 L100.13058778297079,478.9271027509426 M100.13058778297079,478.9271027509426 L93.28195301381822,471.35560044743863 M93.28195301381822,471.35560044743863 L89.93761778355758,471.8732092480697 M89.93761778355758,471.8732092480697 L86.50228838175605,471.9971869367656 M86.50228838175605,471.9971869367656 L83.11270452482017,471.7225946828627 M83.11270452482017,471.7225946828627 L79.90382353025967,471.06038879232557 M79.90382353025967,471.06038879232557 L77.0033121657205,470.0370504264767 M77.0033121657205,470.0370504264767 L74.52635580376864,468.6934699824106 M74.52635580376864,468.6934699824106 L72.5711747235041,467.0832513158051 M72.5711747235041,467.0832513158051 L71.21504589689727,465.2705659214974 M71.21504589689727,465.2705659214974 L70.51128514113918,463.32752851104885 M70.51128514113918,463.32752851104885 L70.48718158435315,461.331306270199 M70.48718158435315,461.331306270199 L71.14307214817956,459.36102517436416 M71.14307214817956,459.36102517436416 L72.45234217135805,457.49465206963345 M72.45234217135805,457.49465206963345 L74.3626728388312,455.8059020209489 M74.3626728388312,455.8059020209489 L76.79809806047439,454.36134015510464 M76.79809806047439,454.36134015510464 L79.6620688723483,453.21786441546556 M95.56482063684336,459.8350187045696 L96.15356436006033,460.9841971854182 M96.15356436006033,460.9841971854182 L96.24848866925021,462.1902036125704 M96.24848866925021,462.1902036125704 L95.8438250554787,463.3829663937282 M95.8438250554787,463.3829663937282 L94.96280523704229,464.49311853631787 M94.96280523704229,464.49311853631787 L93.65646906862565,465.4560224402208 M93.65646906862565,465.4560224402208 L92.00065335866248,466.2155632348016 M92.00065335866248,466.2155632348016 L90.09165934276734,466.72742888263633 M90.09165934276734,466.72742888263633 L88.04062301581479,466.9617496201195 M88.04062301581479,466.9617496201195 L85.96700935826595,466.9048444158628 M85.96700935826595,466.9048444158628 L83.99159298121879,466.5600521271627 M83.99159298121879,466.5600521271627 L82.22943142250745,465.94746683169495 M82.22943142250745,465.94746683169495 L80.7830405492557,465.10287114522174 M80.7830405492557,465.10287114522174 L79.73648664112466,464.07548889286437 M79.73648664112466,464.07548889286437 L79.15048521361194,462.92517420515213 M79.15048521361194,462.92517420515213 L79.05883091595643,461.7188857396196 M79.05883091595643,461.7188857396196 L79.46657128405496,460.5267542824371 M79.46657128405496,460.5267542824371 L80.34976525034097,459.41799949214976 M80.34976525034097,459.41799949214976 L81.6568783770079,458.4569409413447 M81.6568783770079,458.4569409413447 L83.31188020528737,457.69928365914745 M83.31188020528737,457.69928365914745 L85.21868530146162,457.18888631742345 M85.21868530146162,457.18888631742345 L87.26665912909732,456.9552823201887 M87.26665912909732,456.9552823201887 L89.33700444160081,457.0120076400223 M89.33700444160081,457.0120076400223 L91.30970436211061,457.35577008269473 M91.30970436211061,457.35577008269473 L93.07035167219834,457.9666664705504 M93.07035167219834,457.9666664705504 L94.51675839729285,458.80935153389936 M94.51675839729285,458.80935153389936 L95.56482063684336,459.8350187045696 M255.87278482841825,555.8547777523169 L257.64738656564913,556.5136145578977 M257.64738656564913,556.5136145578977 L259.0983407119286,557.4066274518426 M259.0983407119286,557.4066274518426 L260.1413185365981,558.4820630787182 M260.1413185365981,558.4820630787182 L260.71558743485946,559.6775737571021 M260.71558743485946,559.6775737571021 L260.78750303418826,560.9237789204404 M260.78750303418826,560.9237789204404 L260.3525772120747,562.1482847969411 M260.3525772120747,562.1482847969411 L259.43585757608037,563.2798395044083 M259.43585757608037,563.2798395044083 L258.0904300506467,564.2525466496359 M258.0904300506467,564.2525466496359 L256.3944031886529,565.0097252780968 M256.3944031886529,565.0097252780968 L254.4464415048567,565.5072058027469 M254.4464415048567,565.5072058027469 L252.35995950459625,565.7159384983693 M252.35995950459625,565.7159384983693 L250.256476668607,565.6237465427367 M250.256476668607,565.6237465427367 L248.25852994428902,565.2360134981211 M248.25852994428902,565.2360134981211 L246.4824829532938,564.5753572166562 M246.4824829532938,564.5753572166562 L245.03167584075214,563.680342260193 M245.03167584075214,563.680342260193 L243.99036848192358,562.6031596077764 M243.99036848192358,562.6031596077764 L243.41899899450564,561.4065472551157 M243.41899899450564,561.4065472551157 L243.35046866708117,560.1601536235727 M243.35046866708117,560.1601536235727 L243.78849944164702,558.9364212505344 M243.78849944164702,558.9364212505344 L244.70736627501074,557.8064050397297 M244.70736627501074,557.8064050397297 L246.0534913417575,556.8356489201757 M246.0534913417575,556.8356489201757 L247.74856774599783,556.0804038865955 M247.74856774599783,556.0804038865955 L249.6941714506901,555.584387564058 M249.6941714506901,555.584387564058 L251.77743171687666,555.3763163606036 M251.77743171687666,555.3763163606036 L253.8775624559351,555.4682128017246 M253.8775624559351,555.4682128017246 L255.87278482841825,555.8547777523169 M617.9347545575322,253.06936539794867 L627.984440278093,258.8714568810809 M627.984440278093,258.8714568810809 L637.5761243669293,264.9350345819621 M637.5761243669293,264.9350345819621 L646.6891096359092,271.2486368026204 M646.6891096359092,271.2486368026204 L655.303418224185,277.8002942963956 M655.303418224185,277.8002942963956 L663.3999976699293,284.5774475395937 M663.3999976699293,284.5774475395937 L670.9606016448994,291.5670615021609 M670.9606016448994,291.5670615021609 L677.9679295389443,298.7555636901729 M677.9679295389443,298.7555636901729 L684.4056901132257,306.1288987096496 M684.4056901132257,306.1288987096496 L690.2584993660843,313.6725710720716 M690.2584993660843,313.6725710720716 L695.5121475801171,321.37159080770317 M695.5121475801171,321.37159080770317 L700.1534681579385,329.2105796000843 M700.1534681579385,329.2105796000843 L704.1704378043737,337.1737439737451 M704.1704378043737,337.1737439737451 L707.552208946018,345.2449113562777 M707.552208946018,345.2449113562777 L710.2892336488777,353.40753612815683 M710.2892336488777,353.40753612815683 L712.3731200542826,361.64480096969083 M712.3731200542826,361.64480096969083 L713.7968833955009,369.93955256431076 M713.7968833955009,369.93955256431076 L714.5548403298037,378.2743847804309 M714.5548403298037,378.2743847804309 L714.6426479756476,386.6316819231096 M714.6426479756476,386.6316819231096 L714.0574435274883,394.9936372208939 M714.0574435274883,394.9936372208939 L712.7977641832862,403.3422726534865 M712.7977641832862,403.3422726534865 L710.8635692187711,411.65948678418266 M710.8635692187711,411.65948678418266 L708.256411862051,419.9271471381538 M708.256411862051,419.9271471381538 L704.979234732161,428.12703514209716 M704.979234732161,428.12703514209716 L701.0365788686422,436.24096299682043 M701.0365788686422,436.24096299682043 L696.4345105099852,444.250796465377 M696.4345105099852,444.250796465377 L691.1806405045677,452.1385112962416 M691.1806405045677,452.1385112962416 L685.2840650967175,459.88618643728955 M685.2840650967175,459.88618643728955 L678.75555312981,467.47613892551516 M678.75555312981,467.47613892551516 L671.6073057554376,474.89089294734157 M671.6073057554376,474.89089294734157 L663.8530996151937,482.11325256387425 M663.8530996151937,482.11325256387425 L655.5082564910103,489.12638962023897 M655.5082564910103,489.12638962023897 L646.5895187170643,495.91380874069336 M646.5895187170643,495.91380874069336 L637.1152028010322,502.4595026916733 M637.1152028010322,502.4595026916733 L627.1049939025295,508.74789696076596 M627.1049939025295,508.74789696076596 L616.5799958575508,514.7639533145136 M616.5799958575508,514.7639533145136 L605.5626917515194,520.493213815671 M605.5626917515194,520.493213815671 L594.0769014205509,525.9218450732717 M594.0769014205509,525.9218450732717 L582.1476310282798,531.0366327728098 M582.1476310282798,531.0366327728098 L569.8011963774011,535.8251252740946 M569.8011963774011,535.8251252740946 L557.0649729265123,540.2755711769402 M557.0649729265123,540.2755711769402 L543.967474128086,544.3770180667732 M543.967474128086,544.3770180667732 L530.5382112095028,548.119359696706 M530.5382112095028,548.119359696706 L516.8075713685988,551.4932794179273 M516.8075713685988,551.4932794179273 L502.8068772393743,554.4904206289724 M502.8068772393743,554.4904206289724 L488.5681463603495,557.103305915207 M488.5681463603495,557.103305915207 L474.1240965034831,559.3253994925374 M474.1240965034831,559.3253994925374 L459.5080349111587,561.151123795668 M459.5080349111587,561.151123795668 L444.7538027892983,562.5759304445405 M444.7538027892983,562.5759304445405 L429.895546719513,563.5962020518265 M429.895546719513,563.5962020518265 L414.96779317032207,564.209398130163 M414.96779317032207,564.209398130163 L400.0052557451951,564.4139758093897 M400.0052557451951,564.4139758093897 L385.0427183200681,564.209398130163 M385.0427183200681,564.209398130163 L370.1149647708772,563.5962020518265 M370.1149647708772,563.5962020518265 L355.2567087010919,562.5759304445405 M355.2567087010919,562.5759304445405 L340.50247657923154,561.151123795668 M340.50247657923154,561.151123795668 L325.8864149869071,559.3253994925374 M325.8864149869071,559.3253994925374 L311.4423651300407,557.1033059152069 M311.4423651300407,557.1033059152069 L297.20363425101596,554.4904206289724 M297.20363425101596,554.4904206289724 L283.2029401217913,551.4932794179273 M283.2029401217913,551.4932794179273 L269.4723002808873,548.119359696706 M269.4723002808873,548.119359696706 L256.04303736230423,544.3770180667731 M256.04303736230423,544.3770180667731 L242.94553856387802,540.27557117694 M242.94553856387802,540.27557117694 L230.20931511298917,535.8251252740946 M230.20931511298917,535.8251252740946 L217.86288046211044,531.0366327728098 M217.86288046211044,531.0366327728098 L205.9336100698392,525.9218450732717 M205.9336100698392,525.9218450732717 L194.4478197388708,520.493213815671 M194.4478197388708,520.493213815671 L183.43051563283927,514.7639533145136 M183.43051563283927,514.7639533145136 L172.90551758786063,508.7478969607659 M172.90551758786063,508.7478969607659 L162.89530868935793,502.45950269167326 M162.89530868935793,502.45950269167326 L153.4209927733259,495.91380874069336 M153.4209927733259,495.91380874069336 L144.50225499937994,489.1263896202389 M144.50225499937994,489.1263896202389 L136.1574118751965,482.11325256387425 M136.1574118751965,482.11325256387425 L128.40320573495262,474.89089294734146 M128.40320573495262,474.89089294734146 L121.25495836058019,467.47613892551516 M121.25495836058019,467.47613892551516 L114.72644639367263,459.88618643728955 M114.72644639367263,459.88618643728955 L108.82987098582237,452.13851129624146 M108.82987098582237,452.13851129624146 L103.5760009804049,444.250796465377 M103.5760009804049,444.250796465377 L98.97393262174796,436.2409629968203 M98.97393262174796,436.2409629968203 L95.03127675822918,428.12703514209704 M95.03127675822918,428.12703514209704 L91.75409962833908,419.9271471381538 M91.75409962833908,419.9271471381538 L89.14694227161908,411.65948678418266 M89.14694227161908,411.65948678418266 L87.21274730710394,403.3422726534864 M87.21274730710394,403.3422726534864 L85.95306796290174,394.9936372208939 M85.95306796290174,394.9936372208939 L85.36786351474245,386.6316819231096 M85.36786351474245,386.6316819231096 L85.45567116058646,378.27438478043086 M85.45567116058646,378.27438478043086 L86.21362809488915,369.93955256431065 M86.21362809488915,369.93955256431065 L87.63739143610752,361.64480096969083 M87.63739143610752,361.64480096969083 L89.72127784151246,353.40753612815683 M89.72127784151246,353.40753612815683 L92.45830254437215,345.2449113562777 M92.45830254437215,345.2449113562777 L95.84007368601647,337.1737439737451 M95.84007368601647,337.1737439737451 L99.85704333245161,329.2105796000842 M99.85704333245161,329.2105796000842 L104.49836391027304,321.3715908077031 M104.49836391027304,321.3715908077031 L109.7520121243059,313.67257107207155 M109.7520121243059,313.67257107207155 L115.60482137716446,306.12889870964955 M115.60482137716446,306.12889870964955 L122.04258195144587,298.75556369017283 M122.04258195144587,298.75556369017283 L129.04990984549073,291.5670615021608 M129.04990984549073,291.5670615021608 L136.61051382046077,284.5774475395937 M136.61051382046077,284.5774475395937 L144.7070932662051,277.80029429639546 M144.7070932662051,277.80029429639546 L153.32140185448097,271.2486368026204 M153.32140185448097,271.2486368026204 L162.43438712346082,264.9350345819621 M162.43438712346082,264.9350345819621 L172.0260712122972,258.87145688108086 M172.0260712122972,258.87145688108086 L182.07575693285835,253.0693653979485 M182.07575693285835,253.0693653979485 L192.5619939291549,247.53964957592245 M192.5619939291549,247.53964957592245 L203.46262126094007,242.2926179569142 M203.46262126094007,242.2926179569142 L214.75480757634614,237.33798938346888 M214.75480757634614,237.33798938346888 L226.41518615077388,232.68492917361152 M226.41518615077388,232.68492917361152 L238.41973177577873,228.3419490599418 M238.41973177577873,228.3419490599418 L250.74397704655024,224.31699413821178 M250.74397704655024,224.31699413821178 L263.3629195922765,220.61738207273498 M263.3629195922765,220.61738207273498 L276.2511294321235,217.2497883123266 M276.2511294321235,217.2497883123266 L289.3828300247095,214.2203229825193 M289.3828300247095,214.2203229825193 L302.7318122123625,211.53440185454613 M302.7318122123625,211.53440185454613 L316.2716187026441,209.19684145498704 M316.2716187026441,209.19684145498704 L329.97549762257336,207.21182311015437 M329.97549762257336,207.21182311015437 L343.8164611496072,205.58289593118593 M343.8164611496072,205.58289593118593 L357.76728988740877,204.31292887828388 M357.76728988740877,204.31292887828388 L371.8006954161452,203.4042110503969 M371.8006954161452,203.4042110503969 L385.88919867324086,202.858331637485 M385.88919867324086,202.858331637485 L400.0052557451951,202.67625780775614 M400.0052557451951,202.67625780775614 L414.1213128171493,202.858331637485 M414.1213128171493,202.858331637485 L428.209816074245,203.4042110503969 M428.209816074245,203.4042110503969 L442.2432216029814,204.31292887828388 M442.2432216029814,204.31292887828388 L456.1940503407829,205.58289593118593 M456.1940503407829,205.58289593118593 L470.03501386781676,207.21182311015437 M470.03501386781676,207.21182311015437 L483.73889278774607,209.19684145498704 M483.73889278774607,209.19684145498704 L497.27869927802766,211.53440185454613 M497.27869927802766,211.53440185454613 L510.6276814656806,214.2203229825193 M510.6276814656806,214.2203229825193 L523.7593820582667,217.2497883123266 M523.7593820582667,217.2497883123266 L536.6475918981135,220.61738207273498 M536.6475918981135,220.61738207273498 L549.2665344438399,224.31699413821187 M549.2665344438399,224.31699413821187 L561.5907797146115,228.3419490599418 M561.5907797146115,228.3419490599418 L573.5953253396162,232.68492917361164 M573.5953253396162,232.68492917361164 L585.2557039140439,237.33798938346888 M585.2557039140439,237.33798938346888 L596.54789022945,242.2926179569142 M596.54789022945,242.2926179569142 L607.4485175612352,247.53964957592245 M607.4485175612352,247.53964957592245 L617.9347545575322,253.06936539794867 M235.78829627247947,556.8878398532597 L236.2012482113346,587.8579313676736 M236.2012482113346,587.8579313676736 L235.25268992654824,589.8514954539584 M235.25268992654824,589.8514954539584 L234.98469704186837,591.9124571998302 M234.98469704186837,591.9124571998302 L235.40850337734383,593.9592140920248 M235.40850337734383,593.9592140920248 L236.5079958343683,595.9105395670866 M236.5079958343683,595.9105395670866 L238.24011361183912,597.6888539232788 M238.24011361183912,597.6888539232788 L240.53652282639385,599.2233704756393 M240.53652282639385,599.2233704756393 L243.30631630783859,600.4528791877435 M243.30631630783859,600.4528791877435 L246.43953864621787,601.3282800463801 M246.43953864621787,601.3282800463801 L249.81161672670217,601.8145815757124 M249.81161672670217,601.8145815757124 L253.28834106193082,601.892346564356 M253.28834106193082,601.892346564356 L256.73129297308213,601.558451647643 M256.73129297308213,601.558451647643 L260.0033941757698,600.8262671780683 M260.0033941757698,600.8262671780683 L262.9744771624323,599.7250486686993 M262.9744771624323,599.7250486686993 L265.5265484008178,598.2987909536362 M265.5265484008178,598.2987909536362 L267.55839161784417,596.6044187899571 M94.04294702025379,502.12373574395707 L100.87548275139653,509.7133488724153 M100.87548275139653,509.7133488724153 L108.28102466455789,517.1331658450292 M108.28102466455789,517.1331658450292 L116.24732104851728,524.368306255014 M116.24732104851728,524.368306255014 L124.76088681628511,531.4041790225723 M124.76088681628511,531.4041790225723 L133.80708880872896,538.2264634097527 M133.80708880872896,538.2264634097527 L143.3700418608026,544.8212230590357 M143.3700418608026,544.8212230590357 L153.43271063343084,551.1748958283418 M153.43271063343084,551.1748958283418 L163.97691796967553,557.2743388706631 M163.97691796967553,557.2743388706631 L174.98337691779906,563.1068644521464 M174.98337691779906,563.1068644521464 L186.43172507028652,568.6602759912803 M186.43172507028652,568.6602759912803 L198.3005780830889,573.9228916815033 M198.3005780830889,573.9228916815033 L210.567489845181,578.8836237394048 M210.567489845181,578.8836237394048 L223.2091324347283,583.5319392745955 M223.2091324347283,583.5319392745955 L236.2012482113346,587.8579313676736 M80.45456986728345,483.94243050462603 L77.5978295838255,485.08866070016154 M77.5978295838255,485.08866070016154 L75.16861544709923,486.53670081456147 M75.16861544709923,486.53670081456147 L73.26323020951463,488.22951498289814 M73.26323020951463,488.22951498289814 L71.95744273917796,490.10037705051485 M71.95744273917796,490.10037705051485 L71.30343165079518,492.0753940398623 M71.30343165079518,492.0753940398623 L71.32773411764595,494.07641139951016 M71.32773411764595,494.07641139951016 L72.0300022221868,496.0241131494194 M72.0300022221868,496.0241131494194 L73.38300304854056,497.84114727803944 M73.38300304854056,497.84114727803944 L75.33354258902301,499.45522677218327 M75.33354258902301,499.45522677218327 L77.80452674057943,500.8020271562324 M77.80452674057943,500.8020271562324 L80.69797210929363,501.8278170331226 M80.69797210929363,501.8278170331226 L83.89897461068858,502.4916088641498 M83.89897461068858,502.4916088641498 L87.2801821194331,502.76685864719235 M87.2801821194331,502.76685864719235 L90.70697233663975,502.6425840931773 M90.70697233663975,502.6425840931773 L94.04294702025379,502.12373574395707 M104.2051265293652,488.452325591241 L110.16030467680645,495.9289340903878 M110.16030467680645,495.9289340903878 L116.68955495963417,503.25473968187407 M116.68955495963417,503.25473968187407 L123.7818659656757,510.4146378825478 M123.7818659656757,510.4146378825478 L131.42500213807142,517.3937723697377 M131.42500213807142,517.3937723697377 L139.60547138053363,524.1775575374734 M139.60547138053363,524.1775575374734 L148.30856019047502,530.7517414368551 M148.30856019047502,530.7517414368551 L157.51834229192102,537.1024298016824 M157.51834229192102,537.1024298016824 L167.21774797005332,543.2161008112536 M167.21774797005332,543.2161008112536 L177.38850194773346,549.0796973760205 M177.38850194773346,549.0796973760205 L188.0112690258152,554.6805958724208 M188.0112690258152,554.6805958724208 L199.06557284446563,560.0067073800742 M199.06557284446563,560.0067073800742 L210.52993164274844,565.0464603260397 M210.52993164274844,565.0464603260397 L222.3818627046653,569.7888604103758 M222.3818627046653,569.7888604103758 L234.59790657025474,574.2235158198413 M234.59790657025474,574.2235158198413 L247.15372108835425,578.3406802005964 M247.15372108835425,578.3406802005964 L260.0241107303863,582.1312548398747 M260.0241107303863,582.1312548398747 L273.83723293502413,585.7480210961985 M273.83723293502413,585.7480210961985 L287.9371280933325,588.9872028991043 M287.9371280933325,588.9872028991043 L302.2921746748185,591.8408475896043 M302.2921746748185,591.8408475896043 L316.86995244730633,594.3019382213836 M316.86995244730633,594.3019382213836 L331.63743702073236,596.3644165950283 M331.63743702073236,596.3644165950283 L346.561102584772,598.0231711892367 M346.561102584772,598.0231711892367 L361.6069405060892,599.2741076204852 M361.6069405060892,599.2741076204852 L376.7405934952573,600.1141278071951 M376.7405934952573,600.1141278071951 L391.92749043381707,600.5411297971264 M391.92749043381707,600.5411297971264 L407.13286876188596,600.5540731992244 M407.13286876188596,600.5540731992244 L422.32193928670796,600.1529361710426 M422.32193928670796,600.1529361710426 L437.45993740715966,599.3386817976867 M437.45993740715966,599.3386817976867 L452.51226904478955,598.1133461265855 M452.51226904478955,598.1133461265855 L467.4445802951651,596.4799672300902 M467.4445802951651,596.4799672300902 L482.2228169477809,594.4425854726906 M482.2228169477809,594.4425854726906 L496.81341486137876,592.0062308415521 M496.81341486137876,592.0062308415521 L511.183319489393,589.1769198168546 M511.183319489393,589.1769198168546 L525.3001258942039,585.9616226668512 M525.3001258942039,585.9616226668512 L539.1320748471903,582.3682014455411 M539.1320748471903,582.3682014455411 L552.6482753660819,578.4054807266701 M552.6482753660819,578.4054807266701 L565.8186475765951,574.0830993124363 M565.8186475765951,574.0830993124363 L578.6141403237746,569.4115786148683 M578.6141403237746,569.4115786148683 L591.0066695289597,564.4022172434873 M591.0066695289597,564.4022172434873 L602.9692818772434,559.067096311552 M602.9692818772434,559.067096311552 L614.4761726908554,553.4190118711638 M614.4761726908554,553.4190118711638 L625.5027499465372,547.4714452075148 M625.5027499465372,547.4714452075148 L636.0257480567393,541.2385460641359 M636.0257480567393,541.2385460641359 L646.0231557230629,534.735023072791 M646.0231557230629,534.735023072791 L655.4743781652763,527.9761618365502 M655.4743781652763,527.9761618365502 L664.3602152748938,520.9777494691228 M664.3602152748938,520.9777494691228 L672.6629046365617,513.7560264426221 M672.6629046365617,513.7560264426221 L680.3661721933142,506.3276551081551 M680.3661721933142,506.3276551081551 L687.4552002134047,498.70964750492305 M687.4552002134047,498.70964750492305 L693.9167532757511,490.91935411228917 M693.9167532757511,490.91935411228917 L699.739016607003,482.9743571193539 M699.739016607003,482.9743571193539 L704.9118048485498,474.8924979660013 M704.9118048485498,474.8924979660013 L709.4264053506533,466.691767817419 M709.4264053506533,466.691767817419 L713.275683153823,458.39028627724014 M713.275683153823,458.39028627724014 L716.4539849985732,450.00626781397085 M716.4539849985732,450.00626781397085 L718.9572111853503,441.5579548417466 M718.9572111853503,441.5579548417466 L720.782758715216,433.0635847048449 M720.782758715216,433.0635847048449 L721.9295096163074,424.5413528249494 M721.9295096163074,424.5413528249494 L722.3978087264694,416.00936153682505 M722.3978087264694,416.00936153682505 L722.1894334413189,407.48559716462034 M722.1894334413189,407.48559716462034 L721.3076161492254,398.9878663629253 M721.3076161492254,398.9878663629253 L719.7569238098934,390.53379754440414 M719.7569238098934,390.53379754440414 L717.5432802065856,382.14075950215874 M717.5432802065856,382.14075950215874 L714.6740016680981,373.82586070716457 M714.6740016680981,373.82586070716457 L711.1575693536246,365.6059443842322 M711.1575693536246,365.6059443842322 L707.0038065532646,357.49746510198315 M707.0038065532646,357.49746510198315 L702.2236860655942,349.51658586980574 M702.2236860655942,349.51658586980574 L696.8293553638775,341.67905228131735 M696.8293553638775,341.67905228131735 L690.83410628001,334.000198281843 M690.83410628001,334.000198281843 L684.2522833913978,326.49495769229844 M684.2522833913978,326.49495769229844 L677.0992852031444,319.177786396114 M677.0992852031444,319.177786396114 L669.3914602166334,312.062706512359 M669.3914602166334,312.062706512359 L661.1461393125488,305.1632252599753 M661.1461393125488,305.1632252599753 L652.3815774234821,298.4923432267419 M652.3815774234821,298.4923432267419 L643.1168279671246,292.0625640619755 M643.1168279671246,292.0625640619755 L633.3717958889492,285.8858426806612 M633.3717958889492,285.8858426806612 L623.1671647222354,279.9735823125292 M623.1671647222354,279.9735823125292 L612.5242956535996,274.3366543053414 M612.5242956535996,274.3366543053414 L601.4652892755622,268.985327981742 M601.4652892755622,268.985327981742 L590.0128391079834,263.92932196873403 M590.0128391079834,263.92932196873403 L578.1902431557555,259.1777628381569 M578.1902431557555,259.1777628381569 L566.0213781812937,254.7391613130709 M566.0213781812937,254.7391613130709 L553.5305934591348,250.6214609025595 M553.5305934591348,250.6214609025595 L540.7427119897018,246.83198591712312 M540.7427119897018,246.83198591712312 L527.6830327134825,243.3774279889948 M527.6830327134825,243.3774279889948 L514.3771820577477,240.26388563100278 M514.3771820577477,240.26388563100278 L500.8511837402606,237.4968252358756 M500.8511837402606,237.4968252358756 L487.1313222124204,235.08110376933678 M487.1313222124204,235.08110376933678 L473.24416244594346,233.02093796128753 M473.24416244594346,233.02093796128753 L459.2165627296973,231.3199074645225 M459.2165627296973,231.3199074645225 L445.0754665549066,229.98099175047963 M445.0754665549066,229.98099175047963 L430.8480766200038,229.00648119420495 M430.8480766200038,229.00648119420495 L416.5616580274367,228.39809633757397 M416.5616580274367,228.39809633757397 L402.2435447917834,228.1568816132819 M402.2435447917834,228.1568816132819 L387.9211568155442,228.28324235645334 M387.9211568155442,228.28324235645334 L373.62188331703754,228.77697552302445 M373.62188331703754,228.77697552302445 L359.3731085613195,229.6372194399394 M359.3731085613195,229.6372194399394 L345.20213080718025,230.86248197293102 M345.20213080718025,230.86248197293102 L331.13615194578614,232.4506375457842 M331.13615194578614,232.4506375457842 L317.2022221589728,234.39892789893628 M317.2022221589728,234.39892789893628 L303.427210446044,236.7039666257349 M303.427210446044,236.7039666257349 L289.83778358050705,239.3617175479238 M289.83778358050705,239.3617175479238 L276.46032949267357,242.36754188418652 M276.46032949267357,242.36754188418652 L263.32093870359085,245.71615191673277 M263.32093870359085,245.71615191673277 L250.44540467992326,249.40167116624775 M250.44540467992326,249.40167116624775 L237.85908305301635,253.41755339353796 M237.85908305301635,253.41755339353796 L225.58697189731757,257.7566937007741 M225.58697189731757,257.7566937007741 L213.65357654237874,262.41134075898884 M213.65357654237874,262.41134075898884 L202.08292687391213,267.37316014287705 M202.08292687391213,267.37316014287705 L190.8984966488763,272.63321167647035 M190.8984966488763,272.63321167647035 L180.1231872534807,278.1819685518015 M180.1231872534807,278.1819685518015 L169.77928306272696,284.0093307840389 M169.77928306272696,284.0093307840389 L159.88836236015734,290.10460206993 M159.88836236015734,290.10460206993 L150.47135469400746,296.45656287153093 M150.47135469400746,296.45656287153093 L141.54839349040242,303.0534170889283 M141.54839349040242,303.0534170889283 L133.13881326597448,309.8828361537372 M133.13881326597448,309.8828361537372 L125.26112396238813,316.93197504176794 M125.26112396238813,316.93197504176794 L117.93292212316527,324.18746229989296 M117.93292212316527,324.18746229989296 L111.17091338141972,331.6354674529454 M111.17091338141972,331.6354674529454 L104.99075772481103,339.2616457508934 M104.99075772481103,339.2616457508934 L99.40718563572034,347.0512327021848 M99.40718563572034,347.0512327021848 L94.43376650434209,354.9889899864531 M94.43376650434209,354.9889899864531 L90.08302056288545,363.05930209862476 M90.08302056288545,363.05930209862476 L86.36631780615602,371.2461499264371 M86.36631780615602,371.2461499264371 L83.29381638177841,379.5331631725683 M83.29381638177841,379.5331631725683 L80.87444818762458,387.9036062274287 M80.87444818762458,387.9036062274287 L79.1158801516521,396.340459408486 M79.1158801516521,396.340459408486 L78.02449624817439,404.82642859806884 M78.02449624817439,404.82642859806884 L77.60525934557813,413.3439613111261 M77.60525934557813,413.3439613111261 L77.86182592370864,421.8753064795332 M77.86182592370864,421.8753064795332 L78.79646213481158,430.40252306035757 M78.79646213481158,430.40252306035757 L80.40993738902176,438.907553840759 M80.40993738902176,438.907553840759 L82.70159623982772,447.37222127259855 M82.70159623982772,447.37222127259855 L85.6693172738199,455.7782886299377 M85.6693172738199,455.7782886299377 L89.30943537007056,464.10752317641527 M89.30943537007056,464.10752317641527 L93.61681530047576,472.341696629148 M93.61681530047576,472.341696629148 L98.58478564379556,480.4626352148748 M98.58478564379556,480.4626352148748 L104.2051265293652,488.452325591241 M94.04294702025379,502.12373574395707 L93.28195301381822,471.35560044743863 M96.25038504945906,487.78721313935455 L96.71834171770138,488.50020703283997 M96.71834171770138,488.50020703283997 L96.93057654242244,489.0466007838269 M96.93057654242244,489.0466007838269 L96.88062290155676,489.4099552895355 M96.88062290155676,489.4099552895355 L96.56984496986433,489.5792903461926 M96.56984496986433,489.5792903461926 L96.00738193820342,489.54942704005094 M96.00738193820342,489.54942704005094 L95.2099855508273,489.32113037944436 M95.2099855508273,489.32113037944436 L93.8233703763479,488.72053744413637 M93.8233703763479,488.72053744413637 L92.7599323582649,488.16464493494834 M92.7599323582649,488.16464493494834 L91.59375358691375,487.49157877182927 M95.90798923100999,473.82686993187974 L96.38155847628002,474.74830749116467 M96.38155847628002,474.74830749116467 L96.60920853751435,475.91554302835607 M96.60920853751435,475.91554302835607 L96.58403119399946,477.29360667639565 M96.58403119399946,477.29360667639565 L96.30671716261031,478.8411634378308 M96.30671716261031,478.8411634378308 L95.78551244070798,480.51176393646875 M95.78551244070798,480.51176393646875 L95.03606964996584,482.2552192885525 M95.03606964996584,482.2552192885525 L93.72155513241609,484.60248875523274 M93.72155513241609,484.60248875523274 L92.7082710060588,486.08227374547096 M92.7082710060588,486.08227374547096 L91.59375358691375,487.49157877182927 M95.90798923100999,473.82686993187974 L95.56482063684336,459.8350187045696 M84.7738579538701,478.38293780195994 L86.82742983713473,476.2379003584013 M86.82742983713473,476.2379003584013 L88.96862815026492,474.52377154770227 M88.96862815026492,474.52377154770227 L90.99673612024225,473.3785008107339 M90.99673612024225,473.3785008107339 L92.68025046273101,472.8405299797969 M92.68025046273101,472.8405299797969 L94.00926838997964,472.7794123132153 M94.00926838997964,472.7794123132153 L95.00884198430043,473.0700216345601 M95.00884198430043,473.0700216345601 L95.50004025636247,473.3941075965596 M95.50004025636247,473.3941075965596 L95.90798923100999,473.82686993187974 M84.7738579538701,478.38293780195994 L86.91622367761454,479.7525944825776 M86.91622367761454,479.7525944825776 L89.13929346275233,481.32659929125356 M89.13929346275233,481.32659929125356 L91.235298693081,482.9510525137585 M91.235298693081,482.9510525137585 L92.96711707180606,484.41488525281 M92.96711707180606,484.41488525281 L94.32743149532064,485.6723217689642 M94.32743149532064,485.6723217689642 L95.34440915396704,486.7124411705034 M95.34440915396704,486.7124411705034 L95.84091937443407,487.2744755743284 M95.84091937443407,487.2744755743284 L96.25038504945906,487.78721313935455 M96.25038504945906,487.78721313935455 L95.20457087555224,486.75930244881005 M95.20457087555224,486.75930244881005 L93.76132826483422,485.9147735507468 M93.76132826483422,485.9147735507468 L92.0045771133814,485.3025401737821 M92.0045771133814,485.3025401737821 L90.03627954345131,484.95802526528485 M90.03627954345131,484.95802526528485 L87.97058797345522,484.9011757705431 M87.97058797345522,484.9011757705431 L85.92725013213504,485.1352911251941 M85.92725013213504,485.1352911251941 L84.02479493796505,485.64680558651094 M84.02479493796505,485.64680558651094 L82.37360497134671,486.4061208272977 M82.37360497134671,486.4061208272977 L81.06954452639093,487.3692818402393 M81.06954452639093,487.3692818402393 L80.188466371027,488.4804613763835 M80.188466371027,488.4804613763835 L79.78178111116364,489.6751989313471 M79.78178111116364,489.6751989313471 L79.87336736098007,490.8841234038286 M79.87336736098007,490.8841234038286 L80.45818027909661,492.03695080969237 M80.45818027909661,492.03695080969237 L81.50249316382173,493.06657644607856 M81.50249316382173,493.06657644607856 L82.94572018668066,493.9130158173233 M82.94572018668066,493.9130158173233 L84.70397893784263,494.526938016818 M84.70397893784263,494.526938016818 L86.67498087716069,494.8724826604459 M86.67498087716069,494.8724826604459 L88.74392610400594,494.92951202664386 M88.74392610400594,494.92951202664386 L90.7903125398758,494.69468000785116 M90.7903125398758,494.69468000785116 L92.69494663953026,494.1816973462653 M92.69494663953026,494.1816973462653 L94.34694665828079,493.42049870442366 M94.34694665828079,493.42049870442366 L95.6502334459517,492.4554924775106 M95.6502334459517,492.4554924775106 L96.52914709200314,491.3429156958961 M96.52914709200314,491.3429156958961 L96.93276937321752,490.14754686246283 M96.93276937321752,490.14754686246283 L96.83792785903353,488.9389044080324 M96.83792785903353,488.9389044080324 L96.25038504945906,487.78721313935455 M91.59375358691375,487.49157877182927 L89.87079489464168,486.40286003349354 M89.87079489464168,486.40286003349354 L88.07598047107138,485.16731251170347 M91.59375358691375,487.49157877182927 L89.94224990187138,489.2566504625958 M89.94224990187138,489.2566504625958 L88.21667299480401,490.754556524452 M88.07598047107138,485.16731251170347 L88.21667299480401,490.754556524452 M81.82746648916276,476.8186741862455 L81.9707874983797,482.4022877081693 M81.9707874983797,482.4022877081693 L83.26874811105802,480.3379237155922 M83.26874811105802,480.3379237155922 L84.7738579538701,478.38293780195994 M81.82746648916276,476.8186741862455 L83.19585832957631,477.4861138919971 M83.19585832957631,477.4861138919971 L84.7738579538701,478.38293780195994 M256.2023033091558,584.0136565336671 L257.49999839894707,584.3563346030315 M257.49999839894707,584.3563346030315 L258.64285835253014,584.6189303802106 M258.64285835253014,584.6189303802106 L259.5966546989796,584.7935750196722 M259.5966546989796,584.7935750196722 L260.3328234423982,584.8749966709979 M260.3328234423982,584.8749966709979 L260.82918973317345,584.8607069123627 M260.82918973317345,584.8607069123627 L261.0707455624872,584.7510990203346 M261.0707455624872,584.7510990203346 L260.9848251434254,584.4626049405871 M260.9848251434254,584.4626049405871 L260.6820843995578,584.1955403187161 M260.6820843995578,584.1955403187161 L260.19230188683355,583.8721303978614 M256.037732622227,569.9503299068319 L257.3393482292312,570.5034066525224 M257.3393482292312,570.5034066525224 L258.4906914370495,571.3917179577694 M258.4906914370495,571.3917179577694 L259.4571942286494,572.5887028962629 M259.4571942286494,572.5887028962629 L260.20987473907,574.0585105049084 M260.20987473907,574.0585105049084 L260.7260788354365,575.7571007912126 M260.7260788354365,575.7571007912126 L260.9902704860035,577.6335808376044 M260.9902704860035,577.6335808376044 L260.9378949490712,580.3143900979532 M260.9378949490712,580.3143900979532 L260.65830158115904,582.0978714909512 M260.65830158115904,582.0978714909512 L260.19230188683355,583.8721303978614 M256.037732622227,569.9503299068319 L255.87278482841825,555.8547777523169 M244.45799525580964,579.4906343988467 L245.64703323085172,576.6079881020993 M245.64703323085172,576.6079881020993 L247.26610465160073,574.0522550476655 M247.26610465160073,574.0522550476655 L249.14672215275638,572.0433893421421 M249.14672215275638,572.0433893421421 L251.0071763974641,570.731084941204 M251.0071763974641,570.731084941204 L252.73956241713645,570.0078691108524 M252.73956241713645,570.0078691108524 L254.28665559656864,569.7533687870665 M254.28665559656864,569.7533687870665 L255.17841799143451,569.7841383241665 M255.17841799143451,569.7841383241665 L256.037732622227,569.9503299068319 M244.45799525580964,579.4906343988467 L245.69149481163905,580.1497565212304 M245.69149481163905,580.1497565212304 L247.3512361566999,580.9070619986478 M247.3512361566999,580.9070619986478 L249.2650124300864,581.6884594723938 M249.2650124300864,581.6884594723938 L251.14841617170967,582.3924367308736 M251.14841617170967,582.3924367308736 L252.89504592602492,582.9970220400712 M252.89504592602492,582.9970220400712 L254.44943921016045,583.4970401533734 M254.44943921016045,583.4970401533734 L255.34302385581992,583.767198827526 M255.34302385581992,583.767198827526 L256.2023033091558,584.0136565336671 M256.2023033091558,584.0136565336671 L254.21162225418493,583.626272772742 M254.21162225418493,583.626272772742 L252.11628771406518,583.5341816635323 M252.11628771406518,583.5341816635323 L250.03780106541907,583.7426936242695 M250.03780106541907,583.7426936242695 L248.09667225512143,584.2397605328752 M248.09667225512143,584.2397605328752 L246.40551288095793,584.996604871805 M246.40551288095793,584.996604871805 L245.06251973145535,585.9694160607658 M245.06251973145535,585.9694160607658 L244.14581739348907,587.1018236384865 M244.14581739348907,587.1018236384865 L243.70885708554184,588.3281446682854 M243.70885708554184,588.3281446682854 L243.7773004202797,589.5771737879633 M243.7773004202797,589.5771737879633 L244.34742925358702,590.7763153167557 M244.34742925358702,590.7763153167557 L245.3864131347976,591.8557738373855 M245.3864131347976,591.8557738373855 L246.83394845714278,592.7526791447474 M246.83394845714278,592.7526791447474 L248.60596532457853,593.4147304216937 M248.60596532457853,593.4147304216937 L250.59935836366137,593.8032820302251 M250.59935836366137,593.8032820302251 L252.69802969534945,593.8956686013225 M252.69802969534945,593.8956686013225 L254.77972331802962,593.6864952662127 M254.77972331802962,593.6864952662127 L256.7231992635018,593.1879644226326 M256.7231992635018,593.1879644226326 L258.41530465987796,592.4291868395451 M258.41530465987796,592.4291868395451 L259.7576033095574,591.4544249979393 M259.7576033095574,591.4544249979393 L260.67216818284686,590.3204791975168 M260.67216818284686,590.3204791975168 L261.1060377325765,589.093384776387 M261.1060377325765,589.093384776387 L261.03422460845917,587.8445440913534 M261.03422460845917,587.8445440913534 L260.4612096094224,586.6465040534658 M260.4612096094224,586.6465040534658 L259.42056305449466,585.5687922344792 M259.42056305449466,585.5687922344792 L257.9728814548495,584.6738886203211 M257.9728814548495,584.6738886203211 L256.2023033091558,584.0136565336671 M260.19230188683355,583.8721303978614 L259.2340900670176,583.3488962065711 M259.2340900670176,583.3488962065711 L257.9835779841554,582.7549590958333 M260.19230188683355,583.8721303978614 L259.26702198608126,586.2238456346296 M259.26702198608126,586.2238456346296 L258.0486259184135,588.3839006087362 M257.9835779841554,582.7549590958333 L258.0486259184135,588.3839006087362 M243.5562896737706,578.7377366118299 L243.6279005937675,584.3649885232038 M243.6279005937675,584.3649885232038 L243.86460471363927,581.9330226521109 M243.86460471363927,581.9330226521109 L244.45799525580964,579.4906343988467 M243.5562896737706,578.7377366118299 L243.82809318484163,579.0589950004337 M243.82809318484163,579.0589950004337 L244.45799525580964,579.4906343988467 M617.8871976565364,255.82322724590964 L617.9347545575322,253.06936539794867 M617.8871976565364,255.82322724590964 L607.403290170994,250.29221137737218 M607.403290170994,250.29221137737218 L596.5050764552076,245.04394414014817 M596.5050764552076,245.04394414014817 L585.2153829247204,240.08814699045251 M585.2153829247204,240.08814699045251 L573.5575713116858,235.43398772495692 M573.5575713116858,235.43398772495692 L561.5556617479192,231.0899803932629 M561.5556617479192,231.0899803932629 L549.2341165215624,227.06407226412296 M549.2341165215624,227.06407226412296 L536.6179328241943,223.363583013752 M536.6179328241943,223.363583013752 L523.7325354151266,219.9951899356602 M523.7325354151266,219.9951899356602 L510.60369558570295,216.9650048487166 M510.60369558570295,216.9650048487166 L497.2576171932076,214.27844503328373 M497.2576171932076,214.27844503328373 L483.720752214863,211.94032836142583 M483.720752214863,211.94032836142583 L470.0198471793908,209.95483733095384 M470.0198471793908,209.95483733095384 L456.1818845442021,208.32552204964605 M456.1818845442021,208.32552204964605 L442.234078315939,207.05525228670476 M442.234078315939,207.05525228670476 L428.20371153027065,206.14631778522028 M428.20371153027065,206.14631778522028 L414.11825783999774,205.60030818494653 M414.11825783999774,205.60030818494653 L400.0052557451951,205.4181909274751 M400.0052557451951,205.4181909274751 L385.89225365039243,205.60030818494653 M385.89225365039243,205.60030818494653 L371.8067999601195,206.14631778522028 M371.8067999601195,206.14631778522028 L357.7764331744512,207.05525228670476 M357.7764331744512,207.05525228670476 L343.828626946188,208.32552204964605 M343.828626946188,208.32552204964605 L329.9906643109993,209.95483733095384 M329.9906643109993,209.95483733095384 L316.28975927552716,211.94032836142574 M316.28975927552716,211.94032836142574 L302.75289429718254,214.27844503328373 M302.75289429718254,214.27844503328373 L289.40681590468716,216.9650048487166 M289.40681590468716,216.9650048487166 L276.2779760752636,219.9951899356602 M276.2779760752636,219.9951899356602 L263.3925786661958,223.363583013752 M263.3925786661958,223.363583013752 L250.77639496882767,227.06407226412287 M250.77639496882767,227.06407226412287 L238.45484974247088,231.0899803932629 M238.45484974247088,231.0899803932629 L226.4529401787043,235.43398772495692 M226.4529401787043,235.43398772495692 L214.79512856566967,240.08814699045251 M214.79512856566967,240.08814699045251 L203.50543503518256,245.04394414014817 M203.50543503518256,245.04394414014817 L192.60722131939633,250.29221137737218 M192.60722131939633,250.29221137737218 L182.12331383385262,255.82322724591018 M182.12331383385262,255.82322724591018 L172.0758686662709,261.626680449722 M172.0758686662709,261.626680449722 L162.48633141168003,267.691678656153 M162.48633141168003,267.691678656153 L153.37539459761473,274.0067571480755 M153.37539459761473,274.0067571480755 L144.7630315177225,280.5599435482525 M144.7630315177225,280.5599435482525 L136.66829020478406,287.3386750749942 M136.66829020478406,287.3386750749942 L129.10941267195614,294.3299133429516 M129.10941267195614,294.3299133429516 L122.10369535965629,301.520082394462 M122.10369535965629,301.520082394462 L115.66742549874368,308.8951232793254 M115.66742549874368,308.8951232793254 L109.8159832249944,316.4405368733705 M109.8159832249944,316.4405368733705 L104.56357459309226,324.1413294822834 M104.56357459309226,324.1413294822834 L99.92336271645462,331.98211900354033 M99.92336271645462,331.98211900354033 L95.90736761063147,339.9471081106896 M95.90736761063147,339.9471081106896 L92.52643378552273,348.02012032632047 M92.52643378552273,348.02012032632047 L89.7901063599038,356.18460607569267 M89.7901063599038,356.18460607569267 L87.70677459987337,364.4237440589684 M87.70677459987337,364.4237440589684 L86.28342096257234,372.72037694173605 M86.28342096257234,372.72037694173605 L85.52572674735364,381.05709455746836 M85.52572674735364,381.05709455746836 L85.43803307370763,389.41627717028996 M85.43803307370763,389.41627717028996 L86.02320130398607,397.7801139669977 M86.02320130398607,397.7801139669977 L87.28269310470546,406.1306228899173 M87.28269310470546,406.1306228899173 L89.21654838422603,414.4496984804884 M89.21654838422603,414.4496984804884 L91.82321346424129,422.7192042782186 M91.82321346424129,422.7192042782186 L95.0997456014498,430.92091774765714 M95.0997456014498,430.92091774765714 L99.04160401265756,439.03664717638287 M99.04160401265756,439.03664717638287 L103.64272308666114,447.04825446708367 M103.64272308666114,447.04825446708367 L108.89549298456001,454.93771157178537 M108.89549298456001,454.93771157178537 L114.7908188463216,462.68709370255834 M114.7908188463216,462.68709370255834 L121.31793363706458,470.278714248863 M121.31793363706458,470.278714248863 L128.46463838877838,477.69509382853323 M128.46463838877838,477.69509382853323 L136.2171590565527,484.9190330262635 M136.2171590565527,484.9190330262635 L144.56017686677532,491.9337003190904 M144.56017686677532,491.9337003190904 L153.47695288063937,498.7225970605135 M153.47695288063937,498.7225970605135 L162.94917441253858,505.26971287383935 M162.94917441253858,505.26971287383935 L172.9571605072827,511.55947021527845 M172.9571605072827,511.55947021527845 L183.47981193000524,517.5768279503213 M183.47981193000524,517.5768279503213 L194.49465058592602,523.3073253764215 M194.49465058592602,523.3073253764215 L205.97786201045028,528.7371264784318 M205.97786201045028,528.7371264784318 L217.90444575799526,533.853014453411 M217.90444575799526,533.853014453411 L230.24809211876797,538.642535335171 M230.24809211876797,538.642535335171 L242.981432042912,543.0939355423283 M242.981432042912,543.0939355423283 L256.0759588187563,547.1962606410339 M256.0759588187563,547.1962606410339 L269.50216825696356,550.9394025331535 M269.50216825696356,550.9394025331535 L283.2296804631137,554.3140428707675 M283.2296804631137,554.3140428707675 L297.22718038202146,557.3118235382965 M297.22718038202146,557.3118235382965 L311.46265826887975,559.925265771358 M311.46265826887975,559.925265771358 L325.90340435620533,562.1478326107843 M325.90340435620533,562.1478326107843 L340.51611958538456,563.973945491707 M340.51611958538456,563.973945491707 L355.2669710943712,565.399055222749 M355.2669710943712,565.399055222749 L370.1218207458887,566.4195437706657 M370.1218207458887,566.4195437706657 L385.0461506262191,567.0328701970714 M385.0461506262191,567.0328701970714 L400.0052557451951,567.2374913576925 M400.0052557451951,567.2374913576925 L414.96436086417106,567.0328701970714 M414.96436086417106,567.0328701970714 L429.88869074450145,566.4195437706657 M429.88869074450145,566.4195437706657 L444.743540396019,565.399055222749 M444.743540396019,565.399055222749 L459.4943919050056,563.973945491707 M459.4943919050056,563.973945491707 L474.10710713418484,562.1478326107843 M474.10710713418484,562.1478326107843 L488.5478532215105,559.925265771358 M488.5478532215105,559.925265771358 L502.78333110836877,557.3118235382965 M502.78333110836877,557.3118235382965 L516.7808310272765,554.3140428707675 M516.7808310272765,554.3140428707675 L530.5083432334266,550.9394025331535 M530.5083432334266,550.9394025331535 L543.9345526716339,547.196260641034 M543.9345526716339,547.196260641034 L557.0290794474781,543.0939355423283 M557.0290794474781,543.0939355423283 L569.7624193716222,538.642535335171 M569.7624193716222,538.642535335171 L582.1060657323949,533.853014453411 M582.1060657323949,533.853014453411 L594.0326494799399,528.7371264784318 M594.0326494799399,528.7371264784318 L605.5158609044641,523.3073253764215 M605.5158609044641,523.3073253764215 L616.530699560385,517.5768279503213 M616.530699560385,517.5768279503213 L627.0533509831091,511.5594702152775 M627.0533509831091,511.5594702152775 L637.0613370778516,505.26971287383935 M637.0613370778516,505.26971287383935 L646.5335586097508,498.7225970605135 M646.5335586097508,498.7225970605135 L655.4503346236149,491.93370031909046 M655.4503346236149,491.93370031909046 L663.7933524338375,484.9190330262636 M663.7933524338375,484.9190330262636 L671.5458731016118,477.6950938285333 M671.5458731016118,477.6950938285333 L678.6925778533256,470.278714248863 M678.6925778533256,470.278714248863 L685.2196926440686,462.68709370255846 M685.2196926440686,462.68709370255846 L691.1150185058302,454.9377115717854 M691.1150185058302,454.9377115717854 L696.367788403729,447.0482544670838 M696.367788403729,447.0482544670838 L700.9689074777326,439.03664717638287 M700.9689074777326,439.03664717638287 L704.9107658889404,430.9209177476572 M704.9107658889404,430.9209177476572 L708.1872980261488,422.7192042782186 M708.1872980261488,422.7192042782186 L710.7939631061641,414.4496984804884 M710.7939631061641,414.4496984804884 L712.7278183856847,406.13062288991733 M712.7278183856847,406.13062288991733 L713.9873101864041,397.7801139669977 M713.9873101864041,397.7801139669977 L714.5724784166825,389.41627717029 M714.5724784166825,389.41627717029 L714.4847847430365,381.0570945574684 M714.4847847430365,381.0570945574684 L713.7270905278178,372.7203769417361 M713.7270905278178,372.7203769417361 L712.3037368905168,364.4237440589684 M712.3037368905168,364.4237440589684 L710.2204051304864,356.1846060756927 M710.2204051304864,356.1846060756927 L707.4840777048674,348.0201203263205 M707.4840777048674,348.0201203263205 L704.1031438797587,339.9471081106897 M704.1031438797587,339.9471081106897 L700.0871487739355,331.98211900354045 M700.0871487739355,331.98211900354045 L695.446936897298,324.1413294822834 M695.446936897298,324.1413294822834 L690.1945282653957,316.4405368733705 M690.1945282653957,316.4405368733705 L684.3430859916465,308.89512327932545 M684.3430859916465,308.89512327932545 L677.9068161307339,301.5200823944622 M677.9068161307339,301.5200823944622 L670.901098818434,294.32991334295167 M670.901098818434,294.32991334295167 L663.3422212856061,287.3386750749942 M663.3422212856061,287.3386750749942 L655.2474799726676,280.5599435482525 M655.2474799726676,280.5599435482525 L646.6351168927754,274.0067571480755 M646.6351168927754,274.0067571480755 L637.5241800787102,267.6916786561531 M637.5241800787102,267.6916786561531 L627.9346428241192,261.626680449722 M627.9346428241192,261.626680449722 L617.8871976565364,255.82322724590964 M241.78388309293152,555.1035738850389 L244.57758926828663,562.0434486761119 M244.57758926828663,562.0434486761119 L247.34221485588918,567.7831309905392 M247.34221485588918,567.7831309905392 L249.92644172365874,572.282804229769 M249.92644172365874,572.282804229769 L252.39363820785198,575.8494447348944 M252.39363820785198,575.8494447348944 L254.22480823710075,578.0381513674336 M254.22480823710075,578.0381513674336 L255.9098317261254,579.6946415626913 M255.9098317261254,579.6946415626913 L257.08283945122065,580.6341513709499 M257.08283945122065,580.6341513709499 L258.1474610353619,581.3249160859981 M258.1474610353619,581.3249160859981 L259.0386617766735,581.7766211330113 M259.0386617766735,581.7766211330113 L260.0241107303863,582.1312548398747 M104.2051265293652,488.452325591241 L104.60539299863285,488.9320959170421 M104.60539299863285,488.9320959170421 L104.8978952242253,489.1873567622999 M104.8978952242253,489.1873567622999 L105.10283306844315,489.2827097932909 M105.10283306844315,489.2827097932909 L105.28811670594939,489.2554437689687 M105.28811670594939,489.2554437689687 L105.42045821653971,489.0832045066176 M105.42045821653971,489.0832045066176 L105.52532785752493,488.30421281227893 M105.52532785752493,488.30421281227893 L105.41423590180506,486.9517097546642 M105.41423590180506,486.9517097546642 L105.0877688581387,485.0476494275659 M105.0877688581387,485.0476494275659 L104.33540232124949,481.74186139614886 M104.33540232124949,481.74186139614886 L103.10248954374504,477.14833668546817 M103.10248954374504,477.14833668546817 L102.18836660291322,474.0198981321578 M102.18836660291322,474.0198981321578 L101.20156402430734,470.79728228461653 M241.78388309293152,555.1035738850389 L228.90436183233655,550.8801112123281 M228.90436183233655,550.8801112123281 L216.3735926483661,546.3338897556296 M216.3735926483661,546.3338897556296 L204.2163136929034,541.4748613494532 M204.2163136929034,541.4748613494532 L192.45636508967354,536.3136001969583 M192.45636508967354,536.3136001969583 L181.11659085076656,530.8613024759148 M181.11659085076656,530.8613024759148 L170.21882088658853,525.1297418666118 M170.21882088658853,525.1297418666118 L159.78385623825667,519.1312029821604 M159.78385623825667,519.1312029821604 L149.83133099290765,512.8785195838691 M149.83133099290765,512.8785195838691 L140.37980506702445,506.3849570306314 M140.37980506702445,506.3849570306314 L131.4465911355793,499.6642492090317 M131.4465911355793,499.6642492090317 L123.04785357935737,492.7305051366299 M123.04785357935737,492.7305051366299 L115.19852896393513,485.5981875905921 M115.19852896393513,485.5981875905921 L107.91228617695919,478.28209209741505 M107.91228617695919,478.28209209741505 L101.20156402430734,470.79728228461653 M269.5874992863691,562.8173778483691 L283.897653702257,566.1032425366341 M283.897653702257,566.1032425366341 L298.4642970448917,569.0056290291102 M298.4642970448917,569.0056290291102 L313.2555527182074,571.5175853471131 M313.2555527182074,571.5175853471131 L328.23889955842003,573.6330942591899 M328.23889955842003,573.6330942591899 L343.3813405301245,575.347055533621 M343.3813405301245,575.347055533621 L358.6494207421336,576.6553563267665 M358.6494207421336,576.6553563267665 L374.0092573187186,577.5548559825401 M374.0092573187186,577.5548559825401 L389.42685383587747,578.0433578823834 M389.42685383587747,578.0433578823834 L404.867942119247,578.1197030349337 M404.867942119247,578.1197030349337 L420.29823208347165,577.7836992380307 M420.29823208347165,577.7836992380307 L435.68345327480216,577.0361718966012 M435.68345327480216,577.0361718966012 L450.989443422163,575.8788952654982 M450.989443422163,575.8788952654982 L466.18232245742445,574.3146846216766 M466.18232245742445,574.3146846216766 L481.2284473341823,572.3473015993491 M481.2284473341823,572.3473015993491 L496.09464054029115,569.9814644696465 M496.09464054029115,569.9814644696465 L510.7482004177897,567.2228735281693 M510.7482004177897,567.2228735281693 L525.1569835790858,564.0781006485495 M525.1569835790858,564.0781006485495 L539.2895739958506,560.5546955891765 M539.2895739958506,560.5546955891765 L553.1152564429556,556.6610226110747 M553.1152564429556,556.6610226110747 L566.6041904244721,552.4063362329033 M566.6041904244721,552.4063362329033 L579.727432178625,547.8006967391591 M579.727432178625,547.8006967391591 L592.4570077908762,542.8549656873355 M592.4570077908762,542.8549656873355 L604.7659840631018,537.5807325345771 M604.7659840631018,537.5807325345771 L616.6285766589043,531.9903295425871 M616.6285766589043,531.9903295425871 L628.0201432937869,526.0967553156812 M628.0201432937869,526.0967553156812 L638.9172458346939,519.9136228366108 M638.9172458346939,519.9136228366108 L649.2977773340067,513.4551792132838 M649.2977773340067,513.4551792132838 L659.1408986374657,506.7361900598599 M659.1408986374657,506.7361900598599 L668.4271330150062,499.77193040791485 M668.4271330150062,499.77193040791485 L677.138437987533,492.578165082021 M677.138437987533,492.578165082021 L685.2581141632963,485.17102385918173 M685.2581141632963,485.17102385918173 L692.7709563610016,477.5670445125177 M692.7709563610016,477.5670445125177 L699.6632124904316,469.78308359331896 M699.6632124904316,469.78308359331896 L705.9225929342616,461.8362639681389 M705.9225929342616,461.8362639681389 L711.5383203836581,453.74394244420256 M711.5383203836581,453.74394244420256 L716.501066199535,445.5236784029745 M716.501066199535,445.5236784029745 L720.803026891554,437.19316326367687 M720.803026891554,437.19316326367687 L724.4378615916215,428.7701892097057 M724.4378615916215,428.7701892097057 L727.4007192697821,420.27258714697604 M727.4007192697821,420.27258714697604 L729.6881851948011,411.7182356917577 M729.6881851948011,411.7182356917577 L731.2983785997303,403.12498063412187 M731.2983785997303,403.12498063412187 L732.2307468054349,394.51058310571705 M732.2307468054349,394.51058310571705 L732.486203187692,385.89272762822526 M732.486203187692,385.89272762822526 L732.0670569789205,377.28893623619973 M732.0670569789205,377.28893623619973 L730.9769480381802,368.7165690057575 M730.9769480381802,368.7165690057575 L729.2208259913461,360.1927889110226 M729.2208259913461,360.1927889110226 L726.8049829482753,351.73449690892073 M726.8049829482753,351.73449690892073 L723.7369627758274,343.35834194548363 M723.7369627758274,343.35834194548363 L720.025504894264,335.08066941294777 M720.025504894264,335.08066941294777 L715.6805456373881,326.9175024092716 M715.6805456373881,326.9175024092716 L710.7132019718175,318.8845138139671 M710.7132019718175,318.8845138139671 L705.1356830459949,310.9969789892032 M705.1356830459949,310.9969789892032 L698.961244202186,303.2698121755078 M698.961244202186,303.2698121755078 L692.2041913977747,295.71749021632036 M692.2041913977747,295.71749021632036 L684.8798367397565,288.35404961991765 M684.8798367397565,288.35404961991765 L677.0044190096035,281.1930637624299 M677.0044190096035,281.1930637624299 L668.5950376955839,274.2476666612105 M668.5950376955839,274.2476666612105 L659.6697065992284,267.53048280236334 M659.6697065992284,267.53048280236334 L650.2472414053519,261.05362405940093 M650.2472414053519,261.05362405940093 L640.3472214903754,254.82870639925446 M640.3472214903754,254.82870639925446 L629.9899850753358,248.8668046052365 M629.9899850753358,248.8668046052365 L619.1965107285297,243.17848184034324 M619.1965107285297,243.17848184034324 L607.9884837805313,237.77372192233423 M607.9884837805313,237.77372192233423 L596.3881541893244,232.66198262947944 M596.3881541893244,232.66198262947944 L584.4183654985524,227.85214410419962 M584.4183654985524,227.85214410419962 L572.1024562276554,223.35252369209798 M572.1024562276554,223.35252369209798 L559.464272312572,219.17087139447924 M559.464272312572,219.17087139447924 L546.5281458006017,215.31432546430025 M546.5281458006017,215.31432546430025 L533.318762078294,211.789462421745 M533.318762078294,211.789462421745 L519.8611921559466,208.60227870072848 M519.8611921559466,208.60227870072848 L506.1808463031009,205.75816664239522 M506.1808463031009,205.75816664239522 L492.30346550841426,203.2619096293505 M492.30346550841426,203.2619096293505 L478.25499007418495,201.11770608854263 M478.25499007418495,201.11770608854263 L464.0616248508733,199.3291625758352 M464.0616248508733,199.3291625758352 L449.7497629026247,197.89926598574084 M449.7497629026247,197.89926598574084 L435.3459464144812,196.83039443203717 M435.3459464144812,196.83039443203717 L420.87684605448726,196.1243368620674 M420.87684605448726,196.1243368620674 L406.36918723978545,195.7822817095521 M406.36918723978545,195.7822817095521 L391.8497837974545,195.80478453497292 M391.8497837974545,195.80478453497292 L377.3454475323127,196.19180390053606 M377.3454475323127,196.19180390053606 L362.88295092948243,196.94270625310713 M362.88295092948243,196.94270625310713 L348.4890521909945,198.05624479104694 M348.4890521909945,198.05624479104694 L334.1903779441928,199.53053708110895 M334.1903779441928,199.53053708110895 L320.0134645455041,201.3631507246603 M320.0134645455041,201.3631507246603 L305.9847025699305,203.55100413940377 M305.9847025699305,203.55100413940377 L292.13023438952894,206.09043005987544 M292.13023438952894,206.09043005987544 L278.47600301915764,208.97715350769033 M278.47600301915764,208.97715350769033 L265.0476834078561,212.20631347425262 M265.0476834078561,212.20631347425262 L251.87066687461882,215.77243378962646 M251.87066687461882,215.77243378962646 L238.96998007870846,219.66946783196093 M238.96998007870846,219.66946783196093 L226.37027096917473,223.89076507015372 M226.37027096917473,223.89076507015372 L214.0957917286398,228.42909669041163 M214.0957917286398,228.42909669041163 L202.17034911937785,233.27665808948169 M202.17034911937785,233.27665808948169 L190.61719558917073,238.42504305485414 M190.61719558917073,238.42504305485414 L179.4591327303017,243.86531631535834 M179.4591327303017,243.86531631535834 L168.718343334377,249.5879578333744 M168.718343334377,249.5879578333744 L158.4163916735722,255.5828903536515 M158.4163916735722,255.5828903536515 L148.57423836567014,261.8395174776116 M148.57423836567014,261.8395174776116 L139.2120833216561,268.34667688404454 M139.2120833216561,268.34667688404454 L130.34942301972825,275.09269188996876 M130.34942301972825,275.09269188996876 L122.00498971162943,282.06538808206216 M122.00498971162943,282.06538808206216 L114.19664999846253,289.25207148404627 M114.19664999846253,289.25207148404627 L106.9414461888789,296.63956619706516 M106.9414461888789,296.63956619706516 L100.25549187453578,304.21423226867404 M100.25549187453578,304.21423226867404 L94.15397595186107,311.9619828908283 M94.15397595186107,311.9619828908283 L88.65103460915816,319.86827387821063 M88.65103460915816,319.86827387821063 L83.75987570565161,327.9181738085367 M83.75987570565161,327.9181738085367 L79.49251643969518,336.0963267751117 M79.49251643969518,336.0963267751117 L75.85994976767824,344.3870194004946 M75.85994976767824,344.3870194004946 L72.87195706871648,352.7742026675946 M72.87195706871648,352.7742026675946 L70.53713970800123,361.2414730202177 M70.53713970800123,361.2414730202177 L68.86291596368517,369.77217480565116 M68.86291596368517,369.77217480565116 L67.85535093432185,378.3493525990579 M67.85535093432185,378.3493525990579 L67.51928084180963,386.955825146139 M67.51928084180963,386.955825146139 L67.8581738064504,395.574213855661 M67.8581738064504,395.574213855661 L68.87418389298375,404.1869462122218 M68.87418389298375,404.1869462122218 L70.56799651353845,412.77637740634395 M70.56799651353845,412.77637740634395 L72.93895254654757,421.3246853810868 M72.93895254654757,421.3246853810868 L75.98495631454693,429.8140328536905 M75.98495631454693,429.8140328536905 L79.70241045316794,438.22657191849277 M79.70241045316794,438.22657191849277 L84.08629026990292,446.5444442723956 M84.08629026990292,446.5444442723956 L89.13006679768768,454.74986870410504 M260.0241107303863,582.1312548398747 L261.0067408894441,582.3195804134475 M261.0067408894441,582.3195804134475 L261.83675566155773,582.3363484915211 M261.83675566155773,582.3363484915211 L262.5163626651419,582.2423000484337 M262.5163626651419,582.2423000484337 L263.2644134487415,582.0133899749387 M263.2644134487415,582.0133899749387 L263.9787677459615,581.6561790696194 M263.9787677459615,581.6561790696194 L265.303846504492,580.5580441514414 M265.303846504492,580.5580441514414 L266.4759000579434,578.9581186744332 M266.4759000579434,578.9581186744332 L267.47600970308304,576.8825918121614 M267.47600970308304,576.8825918121614 L268.51224075278634,573.4700779390843 M268.51224075278634,573.4700779390843 L269.2593036903192,568.9178244444041 M269.2593036903192,568.9178244444041 L269.4995032871421,565.8912215738831 M269.4995032871421,565.8912215738831 L269.5874992863691,562.8173778483691 M89.13006679768768,454.74986870410504 L92.37320809116176,462.8641224461715 M92.37320809116176,462.8641224461715 L95.19788529092477,469.7037692936715 M95.19788529092477,469.7037692936715 L97.54783601688302,475.18458138306494 M97.54783601688302,475.18458138306494 L99.55040768182846,479.6486983972179 M99.55040768182846,479.6486983972179 L100.88703088013938,482.4789957552088 M100.88703088013938,482.4789957552088 L102.00125123086775,484.7067839309372 M102.00125123086775,484.7067839309372 L102.70811254054513,486.03258215746604 M102.70811254054513,486.03258215746604 L103.29766651464115,487.0652962737453 M103.29766651464115,487.0652962737453 L103.75046810819094,487.7962075094462 M103.75046810819094,487.7962075094462 L104.2051265293652,488.452325591241 M84.7738579538701,478.38293780195994 L98.44225624078996,474.7120100762757 M98.44225624078996,474.7120100762757 L98.5853236552648,473.31066255817007 M98.5853236552648,473.31066255817007 L99.06845171813694,472.11828160507076 M99.06845171813694,472.11828160507076 L99.59019910093582,471.4353754905103 M99.59019910093582,471.4353754905103 L100.28022383571033,470.88900459153945 M100.28022383571033,470.88900459153945 L101.08496030535309,470.56653635869407 M101.08496030535309,470.56653635869407 L101.9707958965609,470.5286749971523 M101.9707958965609,470.5286749971523 L102.88388559037475,470.8557023327322 M102.88388559037475,470.8557023327322 L103.7333685157306,471.61388246507386 M103.7333685157306,471.61388246507386 L104.41037626914965,472.77063672634415 M104.41037626914965,472.77063672634415 L104.86539137362843,474.18030031982914 M104.86539137362843,474.18030031982914 L105.12756580785742,475.69681232572856 M105.12756580785742,475.69681232572856 L105.25327795622758,477.23361174858053 M105.25327795622758,477.23361174858053 L105.29374788548483,478.7457748216897 M105.29374788548483,478.7457748216897 L105.28958653702023,480.2054581102886 M105.28958653702023,480.2054581102886 L105.27242650814401,481.59077998190395 M105.27242650814401,481.59077998190395 L105.26581780107375,482.8748874126592 M105.26581780107375,482.8748874126592 L105.28210177485641,483.97123600588264 M105.28210177485641,483.97123600588264 L105.32034063221175,484.8830757352818 M105.32034063221175,484.8830757352818 L105.37547357728658,485.66050796340284 M105.37547357728658,485.66050796340284 L105.43541117163932,486.2918121720011 M105.43541117163932,486.2918121720011 L105.48229908912629,486.7663999904056 M105.48229908912629,486.7663999904056 L105.49335520474477,487.07353480254085 M105.49335520474477,487.07353480254085 L105.44000789254983,487.19586063358946 M105.44000789254983,487.19586063358946 L105.28668355405665,487.10742935930017 M105.28668355405665,487.10742935930017 L104.99138789751174,486.77363422689666 M104.99138789751174,486.77363422689666 L104.51600669758704,486.1639317882887 M104.51600669758704,486.1639317882887 L103.85720466500027,485.2884562434709 M103.85720466500027,485.2884562434709 L103.06866555111912,484.2203318558188 M103.06866555111912,484.2203318558188 L102.23280694487164,483.0568188987959 M102.23280694487164,483.0568188987959 L101.41366265134769,481.8636910382234 M101.41366265134769,481.8636910382234 L100.65146337124872,480.67327872837666 M100.65146337124872,480.67327872837666 L99.97213179188162,479.4987926212964 M99.97213179188162,479.4987926212964 L99.39610247462315,478.3465241705403 M99.39610247462315,478.3465241705403 L98.94148101334696,477.22075571941673 M98.94148101334696,477.22075571941673 L98.62563009473882,476.1295960877594 M98.62563009473882,476.1295960877594 L98.49666777427325,475.40779014187683 M98.49666777427325,475.40779014187683 L98.44225624078996,474.7120100762757 M96.25038504945906,487.78721313935455 L85.19807618502665,490.76143191496806 M88.21667299480401,490.754556524452 L88.39515550789116,489.67295956548867 M88.39515550789116,489.67295956548867 L88.43125142910606,488.3424169535458 M88.43125142910606,488.3424169535458 L88.32333923066125,486.8190768273593 M88.32333923066125,486.8190768273593 L88.07598047107138,485.16731251170347 M81.9707874983797,482.4022877081693 L81.7234283422913,480.7530517878784 M81.7234283422913,480.7530517878784 L81.61502205365264,479.2313105770602 M81.61502205365264,479.2313105770602 L81.6501781153654,477.9011496468332 M81.6501781153654,477.9011496468332 L81.82746648916276,476.8186741862455 M244.45799525580964,579.4906343988467 L251.0398477128027,571.3692222388916 M251.0398477128027,571.3692222388916 L251.24872148394564,569.8704217616261 M251.24872148394564,569.8704217616261 L251.90180365917553,568.414502224986 M251.90180365917553,568.414502224986 L252.6200920758973,567.4535419154602 M252.6200920758973,567.4535419154602 L253.60596623827726,566.5372784384282 M253.60596623827726,566.5372784384282 L254.82106909271266,565.7742698310689 M254.82106909271266,565.7742698310689 L256.2633703111832,565.2338681678028 M256.2633703111832,565.2338681678028 L257.9095363375629,565.0142228348885 M257.9095363375629,565.0142228348885 L259.6685198679406,565.2217770622852 M259.6685198679406,565.2217770622852 L261.3591386453872,565.8858702659285 M261.3591386453872,565.8858702659285 L262.8184722886019,566.9043783697156 M262.8184722886019,566.9043783697156 L263.9979138185046,568.1331232707413 M263.9979138185046,568.1331232707413 L264.92135528083827,569.4669611019837 M264.92135528083827,569.4669611019837 L265.6270432457155,570.8410009804396 M265.6270432457155,570.8410009804396 L266.14630531812014,572.2114583113096 M266.14630531812014,572.2114583113096 L266.5008658820568,573.544599036524 M266.5008658820568,573.544599036524 L266.702762616499,574.805521964813 M266.702762616499,574.805521964813 L266.7589126740898,575.902237309225 M266.7589126740898,575.902237309225 L266.6931054454482,576.8331611921316 M266.6931054454482,576.8331611921316 L266.50983896291586,577.6492712230291 M266.50983896291586,577.6492712230291 L266.20369913995285,578.3425015986111 M266.20369913995285,578.3425015986111 L265.76576004378927,578.9078951660325 M265.76576004378927,578.9078951660325 L265.180424307544,579.3428892902921 M265.180424307544,579.3428892902921 L264.42634582899416,579.6406955090623 M264.42634582899416,579.6406955090623 L263.476246184072,579.7885862231866 M263.476246184072,579.7885862231866 L262.30486711102594,579.7660130162087 M262.30486711102594,579.7660130162087 L260.91256060467236,579.550180703968 M260.91256060467236,579.550180703968 L259.36861890596754,579.1371463038425 M259.36861890596754,579.1371463038425 L257.80530500296317,578.5609068410241 M257.80530500296317,578.5609068410241 L256.3442443183476,577.8760636091996 M256.3442443183476,577.8760636091996 L255.04332925743893,577.1229483030999 M255.04332925743893,577.1229483030999 L253.91969197938653,576.3219750271717 M253.91969197938653,576.3219750271717 L252.97570205678645,575.4804057983207 M252.97570205678645,575.4804057983207 L252.21265462598,574.5999245861909 M252.21265462598,574.5999245861909 L251.63402521536827,573.6802145112504 M251.63402521536827,573.6802145112504 L251.24690569969414,572.7242539082167 M251.24690569969414,572.7242539082167 L251.09594814095638,572.0518293863612 M251.09594814095638,572.0518293863612 L251.0398477128027,571.3692222388916 M256.2023033091558,584.0136565336671 L250.88720072492296,590.5915116531258 M258.0486259184135,588.3839006087362 L258.523947797034,587.1443261955762 M258.523947797034,587.1443261955762 L258.67348871515145,585.7531891325068 M258.67348871515145,585.7531891325068 L258.49083724734743,584.2691792002993 M258.49083724734743,584.2691792002993 L257.9835779841554,582.7549590958333 M243.6279005937675,584.3649885232038 L243.11980767200725,582.8522878556196 M243.11980767200725,582.8522878556196 L242.93558555983913,581.3691320438408 M242.93558555983913,581.3691320438408 L243.08311671533264,579.9780626095952 M243.08311671533264,579.9780626095952 L243.5562896737706,578.7377366118299 M101.20156402430734,470.79728228461653 L103.0418860067125,469.1115206778666 M103.0418860067125,469.1115206778666 L104.29050668672858,467.2587316953672 M104.29050668672858,467.2587316953672 L104.89970195152046,465.3105850764606 M104.89970195152046,465.3105850764606 L104.84658374563708,463.34228168499806 M104.84658374563708,463.34228168499806 L104.1338453540186,461.42963798261195 M104.1338453540186,461.42963798261195 L102.78946205058497,459.64624477848383 M102.78946205058497,459.64624477848383 L100.8656882425048,458.06055863251555 M100.8656882425048,458.06055863251555 L98.436892581324,456.7333482135982 M98.436892581324,456.7333482135982 L95.5966259952666,455.71544905062626 M95.5966259952666,455.71544905062626 L92.45413538085438,455.0457624742189 M92.45413538085438,455.0457624742189 L89.13006679768768,454.74986870410504 M269.5874992863691,562.8173778483691 L269.1111950249785,560.8088562976159 M269.1111950249785,560.8088562976159 L267.9800216612059,558.900023502959 M267.9800216612059,558.900023502959 L266.2380616206567,557.1642010683847 M266.2380616206567,557.1642010683847 L263.9527255605198,555.6679865823477 M263.9527255605198,555.6679865823477 L261.21222300725174,554.468662837231 M261.21222300725174,554.468662837231 L258.1219846342562,553.61211204849 M258.1219846342562,553.61211204849 L254.800705703897,553.1310815209421 M254.800705703897,553.1310815209421 L251.3759081256787,553.0439126497578 M251.3759081256787,553.0439126497578 L247.97893784364663,553.3539528243693 M247.97893784364663,553.3539528243693 L244.74013135194522,554.0493722330218 M244.74013135194522,554.0493722330218 L241.78388309293152,555.1035738850389" stroke="black"  stroke-width="4"  fill="red"/></svg>