<svg viewBox="0 0 800 800" xmlns="http://www.w3.org/2000/svg"><path d="M6.3684865634533026,364.9727393021085 L23.950091716026236,375.0958905010456 M23.950091716026236,375.0958905010456 L42.33382364043507,384.75165118111136 M42.33382364043507,384.75165118111136 L61.48224325627723,393.91792614527367 M61.48224325627723,393.91792614527367 L81.35591375767711,402.57367593544757 M81.35591375767711,402.57367593544757 L101.9135649866414,410.6988874419669 M101.9135649866414,410.6988874419669 L123.11210646773952,418.27475372147967 M123.11210646773952,418.27475372147967 L144.90677958070674,425.28363063405607 M144.90677958070674,425.28363063405607 L167.25130685807548,431.70910193421275 M167.25130685807548,431.70910193421275 L190.09788200689994,437.5361348803108 M190.09788200689994,437.5361348803108 L213.3973826616293,442.7509861785911 M213.3973826616293,442.7509861785911 L237.099430856829,447.3413922758739 M237.099430856829,447.3413922758739 L261.15262895598704,451.29644339942 M261.15262895598704,451.29644339942 L285.50457932597857,454.6068173592922 M285.50457932597857,454.6068173592922 L310.1021184592881,457.2646068722614 M310.1021184592881,457.2646068722614 L334.8913111384837,459.26353029011193 M334.8913111384837,459.26353029011193 L359.81783052656516,460.5987632926806 M359.81783052656516,460.5987632926806 L384.8268775521029,461.26721079863273 M384.8268775521029,461.26721079863273 L409.8634210788914,461.26721079863273 M409.8634210788914,461.26721079863273 L434.872468104429,460.5987632926807 M434.872468104429,460.5987632926807 L459.7989874925105,459.26353029011193 M459.7989874925105,459.26353029011193 L484.58818017170614,457.2646068722614 M484.58818017170614,457.2646068722614 L509.18571930501565,454.6068173592922 M509.18571930501565,454.6068173592922 L533.5376696750072,451.29644339942 M533.5376696750072,451.29644339942 L557.5908677741652,447.341392275874 M557.5908677741652,447.341392275874 L581.2929159693649,442.7509861785911 M581.2929159693649,442.7509861785911 L604.5924166240943,437.5361348803108 M604.5924166240943,437.5361348803108 L627.4389917729188,431.70910193421275 M627.4389917729188,431.70910193421275 L649.7835190502876,425.28363063405607 M649.7835190502876,425.28363063405607 L671.5781921632547,418.27475372147967 M671.5781921632547,418.27475372147967 L692.7767336443528,410.69888744196714 M692.7767336443528,410.69888744196714 L713.3343848733173,402.57367593544757 M713.3343848733173,402.57367593544757 L733.2080553747171,393.9179261452738 M733.2080553747171,393.9179261452738 L752.356474990559,384.75165118111136 M752.356474990559,384.75165118111136 L770.740206914968,375.0958905010457 M770.740206914968,375.0958905010457 L788.3218120675408,364.9727393021087 M-75.97992754400764,412.5166183544043 L6.3684865634533026,364.9727393021085 M-75.97992754400764,412.5166183544043 L-55.8273816663916,424.77553899192264 M-55.8273816663916,424.77553899192264 L3.8961982168614213,390.2173180227602 M3.8961982168614213,390.2173180227602 L22.31945882457302,399.8448666294755 M22.31945882457302,399.8448666294755 L41.46511210670542,409.0097604520952 M41.46511210670542,409.0097604520952 L61.297982750129904,417.69311758379865 M61.297982750129904,417.69311758379865 L81.78132911250367,425.87694800946826 M81.78132911250367,425.87694800946826 L102.8768349331528,433.5442419881633 M102.8768349331528,433.5442419881633 L124.54485671581699,440.67894325239297 M124.54485671581699,440.67894325239297 L120.57505822938197,443.0507457509873 M120.57505822938197,443.0507457509873 L117.42216882440061,445.8214835596058 M117.42216882440061,445.8214835596058 L115.20117472895697,448.8909669470605 M115.20117472895697,448.8909669470605 L113.9934484181561,452.14805897946826 M113.9934484181561,452.14805897946826 L113.84378590084248,455.4746166383816 M113.84378590084248,455.4746166383816 L114.75856780347709,458.7497489402715 M114.75856780347709,458.7497489402715 L116.70545977183241,461.8542527702334 M116.70545977183241,461.8542527702334 L119.61447530589749,464.674836020086 M119.61447530589749,464.674836020086 L123.38029629856055,467.1085422756619 M123.38029629856055,467.1085422756619 L127.86612116555722,469.0662917265979 M127.86612116555722,469.0662917265979 L132.90864918226566,470.47642932922804 M132.90864918226566,470.47642932922804 L138.32401673096376,471.28719362833056 M138.32401673096376,471.28719362833056 L143.91451441764002,471.46891219425186 M143.91451441764002,471.46891219425186 L149.47601440758015,471.0148822393785 M149.47601440758015,471.0148822393785 L154.80542995504308,469.9417598296777 M154.80542995504308,469.9417598296777 L159.708352370849,468.28890820709717 M159.708352370849,468.28890820709717 L164.0059626320733,466.1169078709456 M164.0059626320733,466.1169078709456 L167.5420360807301,463.50524769549645 M167.5420360807301,463.50524769549645 L170.18818272737914,460.5494373336728 M170.18818272737914,460.5494373336728 L171.8488133128564,457.3573491499816 M171.8488133128564,457.3573491499816 L172.46439977975385,454.04531451859384 M172.46439977975385,454.04531451859384 L196.23902519697145,459.5471802750351 M196.23902519697145,459.5471802750351 L220.42735925938248,464.4319106028187 M220.42735925938248,464.4319106028187 L244.98009332236902,468.68862619143374 M244.98009332236902,468.68862619143374 L269.8470551205568,472.30781532981814 M269.8470551205568,472.30781532981814 L294.97721599452984,475.28133032988774 M294.97721599452984,475.28133032988774 L320.31882568147626,477.6025330724659 M320.31882568147626,477.6025330724659 L345.81967909994705,479.2661737866948 M345.81967909994705,479.2661737866948 L371.4271124358217,480.2685604726021 M371.4271124358217,480.2685604726021 L397.0881295259435,480.60734764981 M397.0881295259435,480.60734764981 L422.74970175309613,480.28184287616523 M422.74970175309613,480.28184287616523 L448.3587368471254,479.29277153381634 M448.3587368471254,479.29277153381634 L473.8622525710153,477.64231344574034 M473.8622525710153,477.64231344574034 L499.20758318683056,475.33423153464946 M499.20758318683056,475.33423153464946 L524.3424726916796,472.3737236718673 M524.3424726916796,472.3737236718673 L523.9520137788154,475.70315552041495 M523.9520137788154,475.70315552041495 L524.6299127911689,479.0226856316949 M524.6299127911689,479.0226856316949 L526.3525231854994,482.21158184440833 M526.3525231854994,482.21158184440833 L529.0580108855161,485.15355841090377 M529.0580108855161,485.15355841090377 L532.6485793459615,487.7412444631351 M532.6485793459615,487.7412444631351 L536.9938790419287,489.88000147914977 M536.9938790419287,489.88000147914977 L541.9358435048116,491.49151169132676 M541.9358435048116,491.49151169132676 L547.2943175535761,492.5167432575158 M547.2943175535761,492.5167432575158 L552.87377202526,492.91809616977514 M552.87377202526,492.91809616977514 L558.4704566240316,492.68082906208326 M558.4704566240316,492.68082906208326 L563.8799675079295,491.8136438182727 M563.8799675079295,491.8136438182727 L568.9049166000004,490.3483671945353 M568.9049166000004,490.3483671945353 L573.3620397747427,488.3386938358316 M573.3620397747427,488.3386938358316 L577.0890898094913,485.85823577662575 M577.0890898094913,485.85823577662575 L579.9507165649745,482.99771100901523 M579.9507165649745,482.99771100901523 L581.8434120457246,479.86161820883194 M581.8434120457246,479.86161820883194 L582.6990927875393,476.56429044221363 M582.6990927875393,476.56429044221363 L582.487593334117,473.2257584692517 M582.487593334117,473.2257584692517 L581.217597970897,469.96734857665956 M581.217597970897,469.96734857665956 L578.9360867295991,466.9071809734211 M578.9360867295991,466.9071809734211 L575.7266959597569,464.1561059281596 M575.7266959597569,464.1561059281596 L599.5887006896376,459.30005649212853 M599.5887006896376,459.30005649212853 L623.0450923841408,453.84290576334297 M623.0450923841408,453.84290576334297 L646.0496086076434,447.79652743637257 M646.0496086076434,447.79652743637257 L668.5569328314068,441.1739860124071 M668.5569328314068,441.1739860124071 L690.5230874635627,433.98956432779244 M690.5230874635627,433.98956432779244 L711.905402267321,426.2587002786337 M711.905402267321,426.2587002786337 L732.6625825283425,417.99793659386785 M732.6625825283425,417.99793659386785 L752.7548997619026,409.22486971156343 M752.7548997619026,409.22486971156343 L772.1442341165427,399.9581468820488 M772.1442341165427,399.9581468820488 L790.7941004141328,390.2173180227603 M790.7941004141328,390.2173180227603 L850.5176802973858,424.77553899192276 M850.5176802973858,424.77553899192276 L890.7768717089723,400.2856191851415 M890.7768717089723,400.2856191851415 L880.1791012544809,394.180560357825 M880.1791012544809,394.180560357825 L865.3695207560988,409.45625465390583 M865.3695207560988,409.45625465390583 L833.6286180565262,391.130635935986 M859.0197055380438,381.9912648683602 L833.6286180565262,391.130635935986 M859.0197055380438,381.9912648683602 L850.5694123214705,377.12330349697663 M850.5694123214705,377.12330349697663 L830.4604859764956,389.3015140267519 M788.3218120675408,364.9727393021087 L830.4604859764956,389.3015140267519 M-17.822114506762148,326.4682192564741 L-17.491266277401962,343.00102235412305 M-76.79078594429234,377.12330349697663 L-17.491266277401962,343.00102235412305 M-75.97992754400764,412.5166183544043 L-76.79078594429234,377.12330349697663 M6.3684865634533026,364.9727393021085 L-6.117055329811194,324.5211142731707 M16.00807754242112,311.8040624144203 L-6.117055329811194,324.5211142731707 M15.921341031144607,307.081903830225 L16.00807754242112,311.8040624144203 M15.921341031144607,307.081903830225 L-17.822114506762148,326.4682192564741 M-43.705095244151494,393.2870849984471 L-44.43418702390579,359.10221761024934 M-65.92436685606935,406.1146747415188 L-43.705095244151494,393.2870849984471 M-66.69110672417656,371.9100674770167 L-65.92436685606935,406.1146747415188 M-44.43418702390579,359.10221761024934 L-66.69110672417656,371.9100674770167 M146.65184075853813,389.4511968709477 L148.85136021735627,391.4951576330591 M148.85136021735627,391.4951576330591 L151.30799137989885,393.3357981622536 M151.30799137989885,393.3357981622536 L153.33410057878797,394.4759942365454 M153.33410057878797,394.4759942365454 L154.33339005020926,394.902748557364 M154.33339005020926,394.902748557364 L155.37429855306874,395.2455395357109 M155.37429855306874,395.2455395357109 L157.03108779754535,395.5612239893446 M157.03108779754535,395.5612239893446 L158.42978172151768,395.58725858664945 M158.42978172151768,395.58725858664945 L159.7410823220225,395.38833533173477 M159.7410823220225,395.38833533173477 L160.9971736728033,394.9698893435535 M160.9971736728033,394.9698893435535 L162.78331542976687,393.92681801769857 M537.5680641131933,413.340417100884 L512.6641978901155,416.70738237314015 M512.6641978901155,416.70738237314015 L487.51116746560774,419.41557564737286 M487.51116746560774,419.41557564737286 L462.1631395607668,421.4586198741098 M462.1631395607668,421.4586198741098 L436.6749177486524,422.83176026378965 M436.6749177486524,422.83176026378965 L411.10154351559663,423.53174063969266 M411.10154351559663,423.53174063969266 L385.4983744730923,423.5569220307549 M385.4983744730923,423.5569220307549 L359.9208906906277,422.9072572618055 M359.9208906906277,422.9072572618055 L334.4243741499139,421.5842439373944 M334.4243741499139,421.5842439373944 L309.06400116450106,419.59100661774687 M309.06400116450106,419.59100661774687 L283.89455442667145,416.9322254932083 M283.89455442667145,416.9322254932083 L258.97023125329025,413.6141566008331 M258.97023125329025,413.6141566008331 L234.3446446413747,409.6445741236936 M234.3446446413747,409.6445741236936 L210.07060412319873,405.03272914281035 M210.07060412319873,405.03272914281035 L186.1998972063421,399.78941874462157 M186.1998972063421,399.78941874462157 L162.78331542976687,393.92681801769857 M537.5680641131933,413.340417100884 L539.4551020336112,414.5040207228201 M539.4551020336112,414.5040207228201 L541.7085416672539,415.32866650547226 M541.7085416672539,415.32866650547226 L543.6912845945828,415.60308571458427 M543.6912845945828,415.60308571458427 L544.7136643063225,415.59294333821333 M544.7136643063225,415.59294333821333 L545.8120037470678,415.4731487067926 M545.8120037470678,415.4731487067926 L547.6355350182548,415.03585699730024 M547.6355350182548,415.03585699730024 L549.2538519520033,414.4087543006258 M549.2538519520033,414.4087543006258 L550.8442978331675,413.58131701397076 M550.8442978331675,413.58131701397076 L552.4427096003649,412.54426410995427 M552.4427096003649,412.54426410995427 L554.8632082523409,410.58907597047266 M800.8073539608056,324.5211142731707 L783.7272482367771,334.35045246474283 M783.7272482367771,334.35045246474283 L765.9072840665096,343.75395534427844 M765.9072840665096,343.75395534427844 L747.3797528975877,352.71243449260965 M747.3797528975877,352.71243449260965 L728.1785023112277,361.20748458604146 M728.1785023112277,361.20748458604146 L708.3390717565017,369.2216483944343 M708.3390717565017,369.2216483944343 L687.8983537961415,376.73829529400507 M687.8983537961415,376.73829529400507 L666.8946782010403,383.7418124642213 M666.8946782010403,383.7418124642213 L645.3678083382424,390.21761872855154 M645.3678083382424,390.21761872855154 L623.3586209712957,396.15213749542966 M623.3586209712957,396.15213749542966 L600.9092142125551,401.5329278648352 M600.9092142125551,401.5329278648352 L578.0626915045311,406.34862731959777 M578.0626915045311,406.34862731959777 L554.8632082523409,410.58907597047266 M788.3218120675408,364.9727393021087 L800.8073539608056,324.5211142731707 M146.65184075853813,389.4511968709477 L125.51268949963207,383.0142531126795 M125.51268949963207,383.0142531126795 L104.88500855836185,376.06714030576234 M104.88500855836185,376.06714030576234 L84.80659387678145,368.62389609111904 M84.80659387678145,368.62389609111904 L65.31391722746673,360.6995227267853 M65.31391722746673,360.6995227267853 L46.44221007309454,352.30987476044265 M46.44221007309454,352.30987476044265 L28.225160372503467,343.4717673442716 M28.225160372503467,343.4717673442716 L10.695156883530274,334.20272815028534 M10.695156883530274,334.20272815028534 L-6.117055329811194,324.5211142731707 M557.3109883749455,434.3953720678412 L557.1502800798942,432.0713637424277 M557.1502800798942,432.0713637424277 L556.1896879429062,430.18753936005896 M556.1896879429062,430.18753936005896 L554.5936562407401,428.73491126612294 M554.5936562407401,428.73491126612294 L552.2037392679697,427.6216615651017 M552.2037392679697,427.6216615651017 L549.2960404859748,427.05437068694437 M549.2960404859748,427.05437068694437 L546.1041755752753,427.04458811394295 M546.1041755752753,427.04458811394295 L542.9786751990748,427.5174971674096 M542.9786751990748,427.5174971674096 L540.2255766794763,428.3009350187806 M540.2255766794763,428.3009350187806 L537.7218781283489,429.3310892297951 M537.7218781283489,429.3310892297951 L535.5486909071419,430.51690233552426 M535.5486909071419,430.51690233552426 L533.717856255581,431.79231381274326 M533.717856255581,431.79231381274326 L532.2143848972819,433.1141353275573 M532.2143848972819,433.1141353275573 L531.0151088854113,434.4563924228794 M531.0151088854113,434.4563924228794 L529.8575174766352,436.2472055064212 M529.8575174766352,436.2472055064212 L529.1251845232848,438.2291157328252 M529.1251845232848,438.2291157328252 L528.9807322995894,440.14265867462336 M528.9807322995894,440.14265867462336 L529.4355260710854,441.94760534463137 M529.4355260710854,441.94760534463137 L530.5294607424548,443.59247100765674 M530.5294607424548,443.59247100765674 L532.3337621091628,444.9990510373523 M532.3337621091628,444.9990510373523 L534.643123606472,445.95667841015563 M534.643123606472,445.95667841015563 L537.3185858478419,446.4457855718406 M537.3185858478419,446.4457855718406 L540.496951201088,446.4456176725837 M540.496951201088,446.4456176725837 L543.9138853424129,445.87683789192135 M543.9138853424129,445.87683789192135 L547.1777427242112,444.80855205407534 M547.1777427242112,444.80855205407534 L550.0162343677775,443.41202195960784 M550.0162343677775,443.41202195960784 L552.3499329260719,441.8396747767696 M552.3499329260719,441.8396747767696 L554.1946644235886,440.18875830044885 M554.1946644235886,440.18875830044885 L555.5892709145855,438.51633643933485 M555.5892709145855,438.51633643933485 L556.5681532145875,436.8575021723781 M556.5681532145875,436.8575021723781 L557.0519150176985,435.61070447591146 M557.0519150176985,435.61070447591146 L557.3109883749455,434.3953720678412 M172.89023331333206,420.416700017425 L171.9797829909036,417.8636284891278 M171.9797829909036,417.8636284891278 L170.4061471671088,415.4334668065918 M170.4061471671088,415.4334668065918 L168.3363184177413,413.18916635286575 M168.3363184177413,413.18916635286575 L165.5884907309273,410.9654112118709 M165.5884907309273,410.9654112118709 L162.5131276097768,409.1041856534215 M162.5131276097768,409.1041856534215 L159.3515000290464,407.7196388343888 M159.3515000290464,407.7196388343888 L156.42718149062298,406.88276184424296 M156.42718149062298,406.88276184424296 L153.9819201847904,406.5400908751376 M153.9819201847904,406.5400908751376 L151.86989191600932,406.5696306936343 M151.86989191600932,406.5696306936343 L150.13725101201982,406.9079616418944 M150.13725101201982,406.9079616418944 L148.7707455009165,407.48890934216115 M148.7707455009165,407.48890934216115 L147.73904651505694,408.2592671654198 M147.73904651505694,408.2592671654198 L147.0093738066958,409.1811176572967 M147.0093738066958,409.1811176572967 L146.46322238722993,410.5991749248211 M146.46322238722993,410.5991749248211 L146.38646476251665,412.40140071363624 M146.38646476251665,412.40140071363624 L146.85193169212755,414.38000436890036 M146.85193169212755,414.38000436890036 L147.8581142271768,416.4971230528347 M147.8581142271768,416.4971230528347 L149.42921905744572,418.7153962839342 M149.42921905744572,418.7153962839342 L151.6134707388703,420.9827856739895 M151.6134707388703,420.9827856739895 L154.15220939607056,422.9886851270046 M154.15220939607056,422.9886851270046 L156.9096221124963,424.65399198988473 M156.9096221124963,424.65399198988473 L160.01806762960476,426.0162407708631 M160.01806762960476,426.0162407708631 L163.19896205439485,426.8784033422919 M163.19896205439485,426.8784033422919 L166.08873971487253,427.14562923445885 M166.08873971487253,427.14562923445885 L168.46683749693725,426.8819080848973 M168.46683749693725,426.8819080848973 L170.29565366379487,426.21400797434524 M170.29565366379487,426.21400797434524 L171.61614829782627,425.2513391889979 M171.61614829782627,425.2513391889979 L172.4811270088361,424.07078386848207 M172.4811270088361,424.07078386848207 L172.93367331143688,422.7242170603622 M172.93367331143688,422.7242170603622 L173.02022239755672,421.60256269979527 M173.02022239755672,421.60256269979527 L172.89023331333206,420.416700017425 M830.4604859764956,389.3015140267519 L831.200854073352,353.9451503279996 M812.1815649083962,343.00102235412317 L831.200854073352,353.9451503279996 M812.5124131377579,326.4682192564733 L812.1815649083962,343.00102235412317 M812.5124131377579,326.4682192564733 L778.7689575998495,307.081903830225 M778.7689575998495,307.081903830225 L778.682221088573,311.8040624144204 M800.8073539608056,324.5211142731707 L778.682221088573,311.8040624144204 M831.200854073352,353.9451503279996 L851.3432727591585,341.78639232856483 M850.5694123214705,377.12330349697663 L851.3432727591585,341.78639232856483 M859.8083535671224,346.64657232833883 L851.3432727591585,341.78639232856483 M859.0197055380438,381.9912648683602 L859.8083535671224,346.64657232833883 M859.8083535671224,346.64657232833883 L834.3745292699662,355.77135461975945 M833.6286180565262,391.130635935986 L834.3745292699662,355.77135461975945 M834.3745292699662,355.77135461975945 L866.1710696025461,374.0678011119587 M866.1710696025461,374.0678011119587 L865.3695207560988,409.45625465390583 M881.0048348400564,358.8164165017555 L880.1791012544809,394.180560357825 M881.0048348400564,358.8164165017555 L866.1710696025461,374.0678011119587 M891.6212107274416,364.9117508439167 L881.0048348400564,358.8164165017555 M890.7768717089723,400.2856191851415 L891.6212107274416,364.9117508439167 M850.5176802973858,424.77553899192276 L851.2949027950681,389.3627810360488 M891.6212107274416,364.9117508439167 L851.2949027950681,389.3627810360488 M791.4667202956246,354.85949339930414 L851.2949027950681,389.3627810360488 M791.4667202956246,354.85949339930414 L790.7941004141328,390.2173180227603 M812.1815649083962,343.00102235412317 L805.3960196845819,347.0196438781138 M805.3960196845819,347.0196438781138 L798.4904428383454,350.972883241378 M798.4904428383454,350.972883241378 L791.4667202956246,354.85949339930414 M576.1774115490443,412.0844333898615 L575.7266959597569,464.1561059281596 M812.5124131377579,326.4682192564733 L794.4546176536116,336.8563365743314 M794.4546176536116,336.8563365743314 L775.5925819236977,346.78174039772045 M775.5925819236977,346.78174039772045 L755.9624084543914,356.22297153890986 M755.9624084543914,356.22297153890986 L735.6020416199074,365.1594942249711 M735.6020416199074,365.1594942249711 L714.5512618880489,373.5717983457083 M714.5512618880489,373.5717983457083 L692.8515350509308,381.4414339707404 M692.8515350509308,381.4414339707404 L670.5459185697273,388.7510462786862 M670.5459185697273,388.7510462786862 L647.6790204836188,395.4844517851586 M647.6790204836188,395.4844517851586 L624.2968750229859,401.6267231704611 M624.2968750229859,401.6267231704611 L600.446843748663,407.1641790952335 M600.446843748663,407.1641790952335 L576.1774115490443,412.0844333898615 M524.6636010339294,420.2830787373176 L524.3424726916796,472.3737236718673 M576.1774115490443,412.0844333898615 L579.3950287291575,414.82915338724865 M579.3950287291575,414.82915338724865 L581.6824382000789,417.8822560856272 M581.6824382000789,417.8822560856272 L582.9557857884383,421.13314820747144 M582.9557857884383,421.13314820747144 L583.167965337514,424.4639826975207 M583.167965337514,424.4639826975207 L582.310262856339,427.75371309485354 M582.310262856339,427.75371309485354 L580.4129125564539,430.88258474002896 M580.4129125564539,430.88258474002896 L577.5441633777214,433.7365268814808 M577.5441633777214,433.7365268814808 L573.8077797247479,436.2112800169524 M573.8077797247479,436.2112800169524 L569.3394503928098,438.2163333400006 M569.3394503928098,438.2163333400006 L564.3018311766184,439.67824263049806 M564.3018311766184,439.67824263049806 L558.8786497930357,440.5434354796173 M558.8786497930357,440.5434354796173 L553.2677952739152,440.7801575173314 M553.2677952739152,440.7801575173314 L547.6741914333254,440.3797266421602 M547.6741914333254,440.3797266421602 L542.3021076929565,439.3568507052022 M542.3021076929565,439.3568507052022 L537.3475718641494,437.74904418135975 M537.3475718641494,437.74904418135975 L532.9911987622966,435.6152044837522 M532.9911987622966,435.6152044837522 L529.3914581538138,433.0334707611295 M529.3914581538138,433.0334707611295 L526.6790320921607,430.09826528182134 M526.6790320921607,430.09826528182134 L524.9519666126848,426.9167130195733 M524.9519666126848,426.9167130195733 L524.2722537415905,423.60483275225135 M524.2722537415905,423.60483275225135 L524.6636010339294,420.2830787373176 M172.46439977975385,454.04531451859384 L171.89672863049714,401.99702852274663 M524.6636010339294,420.2830787373176 L499.465225656559,423.2367592682119 M499.465225656559,423.2367592682119 L474.0558300987374,425.5395212705623 M474.0558300987374,425.5395212705623 L448.4878138239285,427.1861767362774 M448.4878138239285,427.1861767362774 L422.81398744364463,428.172969887916 M422.81398744364463,428.172969887916 L397.0874791230844,428.49772500574056 M397.0874791230844,428.49772500574056 L371.3615274643984,428.1597180755273 M371.3615274643984,428.1597180755273 L345.68930725520266,427.159640259743 M345.68930725520266,427.159640259743 L320.1239606169287,425.4998325661775 M320.1239606169287,425.4998325661775 L294.71829622716655,423.183980024859 M294.71829622716655,423.183980024859 L269.5246624901855,420.217322435421 M269.5246624901855,420.217322435421 L244.5949513439456,416.60648531115953 M244.5949513439456,416.60648531115953 L219.9803306817757,412.3596007897821 M219.9803306817757,412.3596007897821 L195.73110911592272,407.4861623869376 M195.73110911592272,407.4861623869376 L171.89672863049714,401.99702852274663 M124.54485671581699,440.67894325239297 L123.85707715136027,388.6616473477819 M171.89672863049714,401.99702852274663 L171.27941292174353,405.30139706573243 M171.27941292174353,405.30139706573243 L169.614418881021,408.48610164075274 M169.614418881021,408.48610164075274 L166.96142903368556,411.4350791721953 M166.96142903368556,411.4350791721953 L163.41627850741673,414.0407054722058 M163.41627850741673,414.0407054722058 L159.10768636914025,416.20769013252016 M159.10768636914025,416.20769013252016 L154.19227691500473,417.8567263963761 M154.19227691500473,417.8567263963761 L148.84932589188816,418.92737234815047 M148.84932589188816,418.92737234815047 L143.27373773073475,419.38035469441957 M143.27373773073475,419.38035469441957 L137.6691160191188,419.19905540630793 M137.6691160191188,419.19905540630793 L132.2401067532586,418.39016196522493 M132.2401067532586,418.39016196522493 L127.18491952667398,416.98327902041615 M127.18491952667398,416.98327902041615 L122.68788107875122,415.03004967903144 M122.68788107875122,415.03004967903144 L118.91270105322576,412.6019649326132 M118.91270105322576,412.6019649326132 L115.9965207734877,409.7879002836522 M115.9965207734877,409.7879002836522 L114.04491657860774,406.6905755152967 M114.04491657860774,406.6905755152967 L113.12804240545654,403.4230217283646 M113.12804240545654,403.4230217283646 L113.27830401665784,400.10416671033965 M113.27830401665784,400.10416671033965 L114.48929418193882,396.85462148024374 M114.48929418193882,396.85462148024374 L116.71609377053835,393.7922547351136 M116.71609377053835,393.7922547351136 L119.87711599267061,391.027944702687 M119.87711599267061,391.027944702687 L123.85707715136027,388.6616473477819 M3.223578335369666,354.85949339930403 L3.8961982168614213,390.2173180227602 M3.223578335369666,354.85949339930403 L-3.800144207350968,350.972883241378 M-3.800144207350968,350.972883241378 L-10.705721053587865,347.0196438781138 M-10.705721053587865,347.0196438781138 L-17.491266277401962,343.00102235412305 M123.85707715136027,388.6616473477819 L101.59885847826138,381.358627068902 M101.59885847826138,381.358627068902 L79.94481123506546,373.49778798567695 M79.94481123506546,373.49778798567695 L58.93774177961632,365.09640693982055 M58.93774177961632,365.09640693982055 L38.61887174669863,356.17285744189326 M38.61887174669863,356.17285744189326 L19.027749674287804,346.74654001422437 M19.027749674287804,346.74654001422437 L0.2021372342030645,336.83787016558665 M0.2021372342030645,336.83787016558665 L-17.822114506762148,326.4682192564741 M-56.604604164073805,389.36278103604866 L3.223578335369666,354.85949339930403 M-55.8273816663916,424.77553899192264 L-56.604604164073805,389.36278103604866 M-76.79078594429234,377.12330349697663 L-56.604604164073805,389.36278103604866 M778.7689575998495,307.081903830225 L761.0917692900919,317.1861300346234 M761.0917692900919,317.1861300346234 L742.5877317106301,326.8086702309953 M742.5877317106301,326.8086702309953 L723.2968513038975,335.92629064238906 M723.2968513038975,335.92629064238906 L703.2611270005898,344.5167972574699 M703.2611270005898,344.5167972574699 L682.5247573267097,352.559277009321 M682.5247573267097,352.559277009321 L661.1337205460648,360.0339929143247 M661.1337205460648,360.0339929143247 L639.1359062322754,366.92254991967116 M639.1359062322754,366.92254991967116 L616.5808797649663,373.2079741476864 M616.5808797649663,373.2079741476864 L593.5196777539363,378.8746178847314 M593.5196777539363,378.8746178847314 L570.0049079143807,383.9084458581076 M570.0049079143807,383.9084458581076 L546.0903450836176,388.2968994273285 M546.0903450836176,388.2968994273285 L521.8309401712349,392.02900146102775 M521.8309401712349,392.02900146102775 L497.28263412783224,395.09538419765124 M497.28263412783224,395.09538419765124 L472.50226471880933,397.4884084366545 M472.50226471880933,397.4884084366545 L447.5471826012108,399.20199861995 M447.5471826012108,399.20199861995 L422.47537646853345,400.23188788940433 M422.47537646853345,400.23188788940433 L397.3451493154971,400.57548492801743 M397.3451493154971,400.57548492801743 L372.2149221624608,400.23188788940433 M372.2149221624608,400.23188788940433 L347.1431160297834,399.20199861995 M347.1431160297834,399.20199861995 L322.1880339121849,397.4884084366545 M322.1880339121849,397.4884084366545 L297.407664503162,395.09538419765124 M297.407664503162,395.09538419765124 L272.85935845975933,392.02900146102775 M272.85935845975933,392.02900146102775 L248.5999535473767,388.2968994273285 M248.5999535473767,388.2968994273285 L224.68539071661348,383.9084458581076 M224.68539071661348,383.9084458581076 L201.17062087705798,378.8746178847314 M201.17062087705798,378.8746178847314 L178.109418866028,373.2079741476864 M178.109418866028,373.2079741476864 L155.55439239871902,366.92254991967116 M155.55439239871902,366.92254991967116 L133.55657808492936,360.0339929143246 M133.55657808492936,360.0339929143246 L112.1655413042846,352.559277009321 M112.1655413042846,352.559277009321 L91.42917163040443,344.5167972574699 M91.42917163040443,344.5167972574699 L71.39344732709674,335.92629064238895 M71.39344732709674,335.92629064238895 L52.102566920364154,326.8086702309953 M52.102566920364154,326.8086702309953 L33.59852934090247,317.1861300346234 M33.59852934090247,317.1861300346234 L15.921341031144607,307.081903830225 M155.26844592263873,386.1999425109366 L158.24896610418853,387.306487350933 M158.24896610418853,387.306487350933 L160.68590619320102,388.8063410346899 M160.68590619320102,388.8063410346899 L162.43763244823506,390.61258156889687 M162.43763244823506,390.61258156889687 L163.4021418392691,392.62049333266066 M163.4021418392691,392.62049333266066 L163.52292719108684,394.71354867108107 M163.52292719108684,394.71354867108107 L162.7924505082964,396.7701591210581 M162.7924505082964,396.7701591210581 L161.25278032845782,398.6706540723345 M161.25278032845782,398.6706540723345 L158.99307675202311,400.3043576894697 M158.99307675202311,400.3043576894697 L156.14452646348855,401.5760718638779 M156.14452646348855,401.5760718638779 L152.87284077219653,402.41161186845454 M152.87284077219653,402.41161186845454 L149.36850423304682,402.7621874363691 M149.36850423304682,402.7621874363691 L145.83561405680229,402.6073470693311 M145.83561405680229,402.6073470693311 L142.4799763333865,401.9561326924455 M142.4799763333865,401.9561326924455 L139.49702878578523,400.8465319642022 M139.49702878578523,400.8465319642022 L137.060335646279,399.34331573006807 M137.060335646279,399.34331573006807 L135.31141501069578,397.53414099109114 M135.31141501069578,397.53414099109114 L134.3517753052662,395.5243789178485 M134.3517753052662,395.5243789178485 L134.23667566366686,393.4310070389471 M134.23667566366686,393.4310070389471 L134.9723672480618,391.37569572140717 M134.9723672480618,391.37569572140717 L136.51564373852148,389.4777847416527 M136.51564373852148,389.4777847416527 L138.77651886568634,387.84735795631184 M138.77651886568634,387.84735795631184 L141.6234728194172,386.57889133792924 M141.6234728194172,386.57889133792924 L144.89119818307094,385.74581052397275 M144.89119818307094,385.74581052397275 L148.39012368084417,385.3963459606939 M148.39012368084417,385.3963459606939 L151.9173838656697,385.55068999835987 M151.9173838656697,385.55068999835987 L155.26844592263873,386.1999425109366 M545.8770746686191,406.41934591440565 L549.3851055749121,406.12425405173474 M549.3851055749121,406.12425405173474 L552.9174578341344,406.33536265266207 M552.9174578341344,406.33536265266207 L556.2693901101604,407.04049999816243 M556.2693901101604,407.04049999816243 L559.2464729616208,408.19886097617893 M559.2464729616208,408.19886097617893 L561.6758512497877,409.7433800503568 M561.6758512497877,409.7433800503568 L563.4163293940921,411.5845757468685 M563.4163293940921,411.5845757468685 L564.3664644551798,413.6156969489384 M564.3664644551798,413.6156969489384 L564.4706759678747,415.7188805617458 M564.4706759678747,415.7188805617458 L563.7223785440513,417.7718575375318 M563.7223785440513,417.7718575375318 L562.1646166117837,419.6552175893921 M562.1646166117837,419.6552175893921 L559.8876124105618,421.25927321938195 M559.8876124105618,421.25927321938195 L557.0236734096939,422.49053323288535 M557.0236734096939,422.49053323288535 L553.7393170446073,423.2771196610315 M553.7393170446073,423.2771196610315 L550.2258319593127,423.57317429227646 M550.2258319593127,423.57317429227646 L546.6878280631024,423.3613682425332 M546.6878280631024,423.3613682425332 L543.3314301882883,422.65408515118816 M543.3314301882883,422.65408515118816 L540.3520587562634,421.4926028677403 M540.3520587562634,421.4926028677403 L537.9231252615477,419.944720865352 M537.9231252615477,419.944720865352 L536.1856665819282,418.1006576434211 M536.1856665819282,418.1006576434211 L535.2404339825944,416.0678212244261 M535.2404339825944,416.0678212244261 L535.1419736364651,413.9645198273183 M535.1419736364651,413.9645198273183 L535.8954645563376,411.91299730118305 M535.8954645563376,411.91299730118305 L537.4566726205746,410.0323307494052 M537.4566726205746,410.0323307494052 L539.7346427837601,408.43162394400986 M539.7346427837601,408.43162394400986 L542.5968463744,407.2036009373787 M542.5968463744,407.2036009373787 L545.8770746686191,406.41934591440565 M16.00807754242112,311.8040624144203 L33.68132459884475,321.91047434484415 M33.68132459884475,321.91047434484415 L52.18122134847545,331.53509201002373 M52.18122134847545,331.53509201002373 L71.46777037057007,340.65467722557514 M71.46777037057007,340.65467722557514 L91.49898233814667,349.24703180073004 M91.49898233814667,349.24703180073004 L112.23066895849524,357.29123876195797 M112.23066895849524,357.29123876195797 L133.61686273156442,364.7675574622258 M133.61686273156442,364.7675574622258 L155.609685405202,371.6575894572636 M155.609685405202,371.6575894572636 L178.15958342047972,377.94435776014836 M178.15958342047972,377.94435776014836 L201.2155324340011,383.6122118035154 M201.2155324340011,383.6122118035154 L224.72493745951755,388.64711377164485 M224.72493745951755,388.64711377164485 L248.63403674958926,393.03650275709094 M248.63403674958926,393.03650275709094 L272.88789283848945,396.76939965489873 M272.88789283848945,396.76939965489873 L297.4305785206134,399.83643502468897 M297.4305785206134,399.83643502468897 L322.2052700444608,402.2299683032719 M322.2052700444608,402.2299683032719 L347.1546309356113,403.9439228477164 M347.1546309356113,403.9439228477164 L372.2206868687257,404.97403104237685 M372.2206868687257,404.97403104237685 L397.3451493154971,405.3177011098677 M397.3451493154971,405.3177011098677 L422.4696117622686,404.97403104237685 M422.4696117622686,404.97403104237685 L447.535667695383,403.9439228477164 M447.535667695383,403.9439228477164 L472.4850285865334,402.2299683032719 M472.4850285865334,402.2299683032719 L497.2597201103809,399.83643502468897 M497.2597201103809,399.83643502468897 L521.8024057925047,396.76939965489885 M521.8024057925047,396.76939965489885 L546.0562618814049,393.03650275709094 M546.0562618814049,393.03650275709094 L569.9653611714768,388.64711377164485 M569.9653611714768,388.64711377164485 L593.4747661969932,383.6122118035154 M593.4747661969932,383.6122118035154 L616.5307152105145,377.94435776014836 M616.5307152105145,377.94435776014836 L639.0806132257924,371.6575894572636 M639.0806132257924,371.6575894572636 L661.0734358994298,364.7675574622258 M661.0734358994298,364.7675574622258 L682.459629672499,357.29123876195797 M682.459629672499,357.29123876195797 L703.1913162928477,349.24703180073004 M703.1913162928477,349.24703180073004 L723.2225282604243,340.65467722557537 M723.2225282604243,340.65467722557537 L742.5090772825188,331.53509201002373 M742.5090772825188,331.53509201002373 L761.0089740321494,321.91047434484415 M761.0089740321494,321.91047434484415 L778.682221088573,311.8040624144204 M545.8429827896198,411.1628033900977 L542.9608857243879,411.7176159236516 M542.9608857243879,411.7176159236516 L540.1927965143432,412.44606601672683 M540.1927965143432,412.44606601672683 L537.5680641131933,413.340417100884 M554.8632082523409,410.58907597047266 L551.8258735086583,410.5955253857477 M551.8258735086583,410.5955253857477 L548.8084681286659,410.78746014568105 M548.8084681286659,410.78746014568105 L545.8429827896198,411.1628033900977 M155.32390408374317,390.9390989688151 L152.5289686652845,390.2664243262958 M152.5289686652845,390.2664243262958 L149.62802307114057,389.7687048774251 M149.62802307114057,389.7687048774251 L146.65184075853813,389.4511968709477 M162.78331542976687,393.92681801769857 L160.4784755372517,392.7790097159432 M160.4784755372517,392.7790097159432 L157.98316108083333,391.7795808823023 M157.98316108083333,391.7795808823023 L155.32390408374317,390.9390989688151 M155.37429855306874,395.2455395357109 L155.32390408374317,390.9390989688151 M545.8120037470678,415.4731487067926 L545.8429827896198,411.1628033900977 M545.7067716292502,430.1148783678336 L548.2080993690322,430.0291961256421 M548.2080993690322,430.0291961256421 L550.7493252228128,430.55355622315574 M550.7493252228128,430.55355622315574 L553.2542690138996,431.6722308095948 M553.2542690138996,431.6722308095948 L555.6478816379017,433.35163143937325 M555.6478816379017,433.35163143937325 L557.8584385793183,435.541443081598 M557.8584385793183,435.541443081598 L559.8197161652674,438.1760690077849 M559.8197161652674,438.1760690077849 L561.9467379131636,442.24274775937727 M561.9467379131636,442.24274775937727 L562.9775346969273,445.12068811648226 M562.9775346969273,445.12068811648226 L563.7081619997027,448.11628169872915 M563.7081619997027,448.11628169872915 L557.3109883749455,434.3953720678412 M545.5368586731443,453.75613562660044 L548.0379150327146,453.31570795806863 M548.0379150327146,453.31570795806863 L550.5840935882081,452.7872917229886 M550.5840935882081,452.7872917229886 L553.0993164843683,452.18668808241887 M553.0993164843683,452.18668808241887 L555.5084412689223,451.5317895902218 M555.5084412689223,451.5317895902218 L557.7394318457939,450.84216789951915 M557.7394318457939,450.84216789951915 L559.7255258167215,450.138433549366 M559.7255258167215,450.138433549366 L561.8911135926446,449.21448665983223 M561.8911135926446,449.21448665983223 L562.9492266537586,448.64613700100256 M562.9492266537586,448.64613700100256 L563.7081619997027,448.11628169872915 M535.371582810863,452.6404468761582 L534.823013825157,453.418514579501 M534.823013825157,453.418514579501 L535.2230787346693,454.0001664650821 M535.2230787346693,454.0001664650821 L536.490758265682,454.34111448734086 M536.490758265682,454.34111448734086 L538.3090163037509,454.4432375683223 M538.3090163037509,454.4432375683223 L540.4186401851666,454.3646694524665 M540.4186401851666,454.3646694524665 L542.6294259191066,454.1583582005628 M542.6294259191066,454.1583582005628 L544.0519767501962,453.977705398819 M544.0519767501962,453.977705398819 L545.5368586731443,453.75613562660044 M535.371582810863,452.6404468761582 L534.8627218868198,447.46297655151295 M534.8627218868198,447.46297655151295 L535.3001539645009,442.4740523134358 M535.3001539645009,442.4740523134358 L536.60020134467,438.12396738275174 M536.60020134467,438.12396738275174 L538.4430615719407,434.8368677023294 M538.4430615719407,434.8368677023294 L540.5701748723598,432.52691158808614 M540.5701748723598,432.52691158808614 L542.7922313551962,431.05315483766003 M542.7922313551962,431.05315483766003 L544.2192336459004,430.4707155186894 M544.2192336459004,430.4707155186894 L545.7067716292502,430.1148783678336 M155.54548285889035,409.8740304965464 L157.73160242808993,410.802946753018 M157.73160242808993,410.802946753018 L159.66533301946623,412.29490391571017 M159.66533301946623,412.29490391571017 L161.28861615700143,414.30529176293373 M161.28861615700143,414.30529176293373 L162.55277554809302,416.77389705540884 M162.55277554809302,416.77389705540884 L163.41976259918192,419.62675272566946 M163.41976259918192,419.62675272566946 L163.86348387466123,422.77838192291904 M163.86348387466123,422.77838192291904 L163.77551690067992,427.28091673719393 M163.77551690067992,427.28091673719393 L163.30592777642372,430.27635068371103 M163.30592777642372,430.27635068371103 L162.5232611845942,433.25629506694577 M162.5232611845942,433.25629506694577 L172.89023331333206,420.416700017425 M155.82188642786696,433.4939943180714 L158.00142131925972,434.0695369201592 M158.00142131925972,434.0695369201592 L159.92090391914408,434.5105778574306 M159.92090391914408,434.5105778574306 L161.52284603383922,434.80390106431923 M161.52284603383922,434.80390106431923 L162.75927319986297,434.9406522405974 M162.75927319986297,434.9406522405974 L163.59294180057395,434.9166519744484 M163.59294180057395,434.9166519744484 L163.9986452376529,434.7325607908364 M163.9986452376529,434.7325607908364 L163.85433818686596,434.2480225370381 M163.85433818686596,434.2480225370381 L163.3458720460164,433.7994759823016 M163.3458720460164,433.7994759823016 L162.5232611845942,433.25629506694577 M136.0968143528463,425.89738350021855 L138.16853007528164,427.004407542095 M138.16853007528164,427.004407542095 L140.95613727261582,428.27633476479855 M140.95613727261582,428.27633476479855 L144.17040709222064,429.5887255347669 M144.17040709222064,429.5887255347669 L147.3336649343289,430.77108571295844 M147.3336649343289,430.77108571295844 L150.2672049637415,431.78651282413887 M150.2672049637415,431.78651282413887 L152.87787554758793,432.6263148183392 M152.87787554758793,432.6263148183392 L154.37868951301718,433.08005796737314 M154.37868951301718,433.08005796737314 L155.82188642786696,433.4939943180714 M136.0968143528463,425.89738350021855 L138.09385493208754,421.05585467520336 M138.09385493208754,421.05585467520336 L140.81315523686635,416.76339074508235 M140.81315523686635,416.76339074508235 L143.97173346789896,413.3894141216407 M143.97173346789896,413.3894141216407 L147.09644663979861,411.18534226186887 M147.09644663979861,411.18534226186887 L150.00606370234314,409.97067007218504 M150.00606370234314,409.97067007218504 L152.6044734453827,409.5432257981595 M152.6044734453827,409.5432257981595 L154.10222686198446,409.59490456324784 M154.10222686198446,409.59490456324784 L155.54548285889035,409.8740304965464 M-65.92436685606935,406.1146747415188 L-90.78617965774913,397.23222094658036 M-91.62121072744168,361.8632147479426 L-90.78617965774913,397.23222094658036 M-66.69110672417656,371.9100674770167 L-91.62121072744168,361.8632147479426 M-59.826475917374125,343.6084410809706 L-91.62121072744168,361.8632147479426 M-44.43418702390579,359.10221761024934 L-59.826475917374125,343.6084410809706 M-43.705095244151494,393.2870849984471 L-59.0470732489087,378.94827031899274 M-90.78617965774913,397.23222094658036 L-59.0470732489087,378.94827031899274 M-59.0470732489087,378.94827031899274 L-59.826475917374125,343.6084410809706 M155.82188642786696,433.4939943180714 L152.47845170959155,432.8433665782138 M152.47845170959155,432.8433665782138 L148.95924694781195,432.6886955870939 M148.95924694781195,432.6886955870939 L145.46833894665215,433.0389004212451 M145.46833894665215,433.0389004212451 L142.20812936120012,433.87374573983004 M142.20812936120012,433.87374573983004 L139.36775422848063,435.144898460548 M139.36775422848063,435.144898460548 L137.11213929145157,436.778776823622 M137.11213929145157,436.778776823622 L135.57249816439753,438.6807042072859 M135.57249816439753,438.6807042072859 L134.83860447487308,440.74036328554087 M134.83860447487308,440.74036328554087 L134.953558008502,442.838161580471 M134.953558008502,442.838161580471 L135.91111398182562,444.8521715141461 M135.91111398182562,444.8521715141461 L137.65613223650467,446.6651686719781 M137.65613223650467,446.6651686719781 L140.08733026321698,448.17155983200394 M140.08733026321698,448.17155983200394 L143.06350904442354,449.2835035153446 M143.06350904442354,449.2835035153446 L146.4114986570215,449.93609270564275 M146.4114986570215,449.93609270564275 L149.93630770420347,450.0912599377508 M149.93630770420347,450.0912599377508 L153.43260195661617,449.739944296806 M153.43260195661617,449.739944296806 L156.69675365685913,448.9026402362714 M156.69675365685913,448.9026402362714 L159.53871767470017,447.6282405485821 M159.53871767470017,447.6282405485821 L161.79316616931257,445.9910859802312 M161.79316616931257,445.9910859802312 L163.3292173322227,444.08657508517445 M163.3292173322227,444.08657508517445 L164.05791995997234,442.025617062812 M164.05791995997234,442.025617062812 L163.93730671969334,439.92813525199665 M163.93730671969334,439.92813525199665 L162.9749033065057,437.91597531981915 M162.9749033065057,437.91597531981915 L161.22709251958375,436.1059118227573 M161.22709251958375,436.1059118227573 L158.79564881383521,434.60288259282856 M158.79564881383521,434.60288259282856 L155.82188642786696,433.4939943180714 M155.54548285889035,409.8740304965464 L155.37429855306874,395.2455395357109 M155.32390408374317,390.9390989688151 L155.26844592263873,386.1999425109366 M134.70263455413044,434.0840715524554 L135.10018933587804,429.99947994659817 M135.10018933587804,429.99947994659817 L136.0968143528463,425.89738350021855 M134.5823609243959,424.63285918370923 L134.70263455413044,434.0840715524554 M134.5823609243959,424.63285918370923 L135.03886664799973,425.1724265078235 M135.03886664799973,425.1724265078235 L136.0968143528463,425.89738350021855 M162.5232611845942,433.25629506694577 L160.9139030918779,432.3775006681244 M160.9139030918779,432.3775006681244 L158.81361409629824,431.37995766566587 M158.81361409629824,431.37995766566587 L158.92286490832947,440.83400779307647 M162.5232611845942,433.25629506694577 L160.96921367076843,437.20610227010104 M160.96921367076843,437.20610227010104 L158.92286490832947,440.83400779307647 M545.5368586731443,453.75613562660044 L542.2641195691951,454.5420448128648 M542.2641195691951,454.5420448128648 L539.4084351760428,455.7726574569192 M539.4084351760428,455.7726574569192 L537.1356359859017,457.3767388417606 M537.1356359859017,457.3767388417606 L535.5779496325749,459.261368778685 M535.5779496325749,459.261368778685 L534.8261252975126,461.31721303302334 M534.8261252975126,461.31721303302334 L534.924298210778,463.4249433667592 M534.924298210778,463.4249433667592 L535.8673037009321,465.4620585457967 M535.8673037009321,465.4620585457967 L537.6007231768087,467.31000166488786 M537.6007231768087,467.31000166488786 L540.0240390186298,468.86113927832935 M540.0240390186298,468.86113927832935 L542.9965404670961,470.0250637976492 M542.9965404670961,470.0250637976492 L546.3452163415677,470.7338338026391 M546.3452163415677,470.7338338026391 L549.8750966981747,470.94608508833755 M549.8750966981747,470.94608508833755 L553.380531086294,470.64940811747385 M553.380531086294,470.64940811747385 L556.6573795058885,469.86116801544915 M556.6573795058885,469.86116801544915 L559.5147913937096,468.6273189407219 M559.5147913937096,468.6273189407219 L561.7866291538537,467.0198893721355 M561.7866291538537,467.0198893721355 L563.3408853168842,465.13256649382424 M563.3408853168842,465.13256649382424 L564.0875399859949,463.07526806816327 M564.0875399859949,463.07526806816327 L563.983642165839,460.96765545293204 M563.983642165839,460.96765545293204 L563.0357566819141,458.93225520584633 M563.0357566819141,458.93225520584633 L561.2993314757741,457.087179063432 M561.2993314757741,457.087179063432 L558.8755726951929,455.5394036913956 M558.8755726951929,455.5394036913956 L555.9053492459307,454.37859988019216 M555.9053492459307,454.37859988019216 L552.5611184510747,453.67197521041965 M552.5611184510747,453.67197521041965 L549.0368639011474,453.4604212833233 M549.0368639011474,453.4604212833233 L545.5368586731443,453.75613562660044 M545.7067716292502,430.1148783678336 L545.8120037470678,415.4731487067926 M545.8429827896198,411.1628033900977 L545.8770746686191,406.41934591440565 M538.0889815174808,460.5608508986885 L536.454075677221,456.73464345513185 M536.454075677221,456.73464345513185 L535.371582810863,452.6404468761582 M538.1535919179917,451.0985295728036 L538.0889815174808,460.5608508986885 M538.1535919179917,451.0985295728036 L536.4866854126897,451.90185797925903 M536.4866854126897,451.90185797925903 L535.371582810863,452.6404468761582 M563.7081619997027,448.11628169872915 L564.2329072814598,447.47217259641 M564.2329072814598,447.47217259641 L564.1380050794085,446.9503300148058 M564.1380050794085,446.9503300148058 L564.0615010892127,456.41091407791487 M563.7081619997027,448.11628169872915 L564.1938109057901,452.304010289213 M564.1938109057901,452.304010289213 L564.0615010892127,456.41091407791487 M155.82188642786696,433.4939943180714 L146.89494232150466,444.5417857878633 M134.5823609243959,424.63285918370923 L133.78764652600432,426.71604020989787 M133.78764652600432,426.71604020989787 L133.5398615852311,429.0524013413682 M133.5398615852311,429.0524013413682 L133.84927057074333,431.54342551690377 M133.84927057074333,431.54342551690377 L134.70263455413044,434.0840715524554 M158.92286490832947,440.83400779307647 L159.721188510881,438.75208908565924 M159.721188510881,438.75208908565924 L159.97234893469079,436.4156143686613 M159.97234893469079,436.4156143686613 L159.6655779141524,433.92315566101536 M159.6655779141524,433.92315566101536 L158.81361409629824,431.37995766566587 M545.5368586731443,453.75613562660044 L551.0248624032772,465.57587779237815 M538.1535919179917,451.0985295728036 L537.2530930684491,453.5552087470917 M537.2530930684491,453.5552087470917 L536.9376352452546,456.01981832042986 M536.9376352452546,456.01981832042986 L537.2202986867303,458.38834775801377 M537.2202986867303,458.38834775801377 L538.0889815174808,460.5608508986885 M564.0615010892127,456.41091407791487 L564.9639867668755,453.95634650947125 M564.9639867668755,453.95634650947125 L565.2824362314914,451.4928168187073 M565.2824362314914,451.4928168187073 L565.003269633768,449.12415525584163 M565.003269633768,449.12415525584163 L564.1380050794085,446.9503300148058" stroke="black"  stroke-width="4"  fill="red"/></svg>